<svg width="17.454102" height="14.836426" viewBox="0 0 17.4541 14.8364" fill="none" xmlns="http://www.w3.org/2000/svg" xmlns:xlink="http://www.w3.org/1999/xlink">
	<desc>
			Created with Pixso.
	</desc>
	<defs/>
	<path id="Vector" d="M16.415 5.88452L2.33203 0.128174C1.73926 -0.114502 1.06836 -0.0078125 0.583008 0.406494C0.0976562 0.820557 -0.105469 1.45898 0.0527344 2.07202L1.30664 6.91431L7.44336 6.91431C7.72656 6.91431 7.95508 7.13989 7.95508 7.41821C7.95508 7.69629 7.72656 7.92188 7.44336 7.92188L1.30664 7.92188L0.0527344 12.7644C-0.105469 13.3774 0.0976562 14.0156 0.583008 14.4299C1.06934 14.845 1.74023 14.9502 2.33203 14.7083L16.415 8.95166C17.0566 8.6897 17.4541 8.10205 17.4541 7.41821C17.4541 6.73438 17.0566 6.14673 16.415 5.88452Z" fill-rule="nonzero" fill="#FFFFFF"/>
</svg>
