<svg id="icon-sushi" width="32.000000" height="32.000000" viewBox="0 0 32 32" fill="none" xmlns="http://www.w3.org/2000/svg" xmlns:xlink="http://www.w3.org/1999/xlink">
	<desc>
			Created with Pixso.
	</desc>
	<defs>
		<clipPath id="clip4_3588">
			<rect id="Sushi" width="32.000000" height="32.000000" fill="white"/>
		</clipPath>
	</defs>
	<g clip-path="url(#clip4_3588)">
		<path id="Vector" d="M19.4592 19.3818C15.2036 19.3818 11.1927 20.0078 7.86072 21.1919C7.03821 21.4844 6.18195 21.6328 5.31604 21.6328C4.24817 21.6328 3.21338 21.4048 2.26892 20.9854C3.04474 23.8701 5.68713 26 8.81915 26L24.3109 26C27.475 26 30.1398 23.8262 30.8846 20.8965C30.5829 20.8955 30.2828 20.8535 29.9925 20.7715C26.7797 19.8623 23.1373 19.3818 19.4592 19.3818Z" fill-rule="nonzero" fill="#FF7010"/>
		<path id="Vector" d="M10.0412 18.2524C11.3703 17.9287 12.7599 17.6777 14.187 17.5005C11.4048 14.4595 11.1456 9.34131 13.6837 6C11.6401 6.06299 9.64508 6.39697 7.78748 6.97461C6.83569 7.88623 6.16028 9.06055 5.85962 10.3516C5.04675 13.5581 6.9433 17.1187 10.0412 18.2524Z" fill-rule="nonzero" fill="#FF7010"/>
		<path id="Vector" d="M7.10388 19.1221C4.32172 17.041 2.87292 13.4434 3.70935 9.85254C3.81488 9.39941 3.95709 8.95801 4.12982 8.53027C3.39258 8.94189 2.69659 9.39941 2.05084 9.90137C-1.95758 13 0.324829 19.4419 5.31604 19.4297C5.9101 19.4297 6.51367 19.3296 7.10388 19.1221Z" fill-rule="nonzero" fill="#FF7010"/>
		<path id="Vector" d="M25.9456 9.22607C24.9726 9.70459 24.188 10.4897 23.7114 11.4731C22.91 13.127 23.1105 15.0493 24.1766 16.4868C24.3414 16.7095 24.9471 17.3774 25.0034 17.5288C26.9269 17.7739 28.8099 18.147 30.595 18.6523C30.9659 18.7573 31.3652 18.6611 31.6478 18.3989C31.9302 18.1367 32.0552 17.7466 31.9772 17.3696C31.3029 14.1094 29.0905 11.2588 25.9456 9.22607Z" fill-rule="nonzero" fill="#FF7010"/>
		<path id="Vector" d="M17.1896 17.2383C18.793 17.1553 20.4196 17.1611 22.038 17.2554C20.814 15.2417 20.6577 12.7144 21.7239 10.5142C22.2036 9.52441 22.8986 8.67334 23.7499 8.01221C21.6113 7.00781 19.1783 6.33789 16.5857 6.09277C13.077 8.98096 13.4069 14.769 17.1896 17.2383Z" fill-rule="nonzero" fill="#FF7010"/>
	</g>
</svg>
