<svg width="41.009766" height="26.000000" viewBox="0 0 41.0098 26" fill="none" xmlns="http://www.w3.org/2000/svg" xmlns:xlink="http://www.w3.org/1999/xlink">
	<desc>
			Created with Pixso.
	</desc>
	<defs/>
	<path id="Vector" d="M40.4756 6.02686C40.4355 2.97241 37.9473 0.5 34.8926 0.5C32.165 0.5 29.8887 2.47388 29.4053 5.073C28.4463 5.49878 26.7803 6.17969 25.7881 6.34546C24.5908 6.54492 23.1445 6.60522 21.4883 6.52344C18.3252 6.36768 15.168 5.33423 12.3564 3.53442C8.81934 1.27002 5.80566 0.73999 2.58691 1.81616C1.33887 2.23364 0.5 3.41211 0.5 4.74927C0.5 5.18237 0.734375 5.58105 1.1123 5.78833C1.54297 6.0249 1.94629 6.22949 2.33594 6.427C4.44922 7.49756 5.61328 8.0874 6.38379 11.3372C6.95996 13.7637 7.96777 15.7976 9.38086 17.3821C10.2627 18.3726 11.3066 19.1907 12.4941 19.8264C11.7676 20.4141 11.3027 21.314 11.3027 22.321L11.3027 24.3169C11.3027 24.9705 11.8271 25.5 12.4736 25.5L26.4297 25.5C27.0771 25.5 27.6016 24.9705 27.6016 24.3169L27.6016 22.321C27.6016 21.3186 27.1406 20.4224 26.4199 19.8345C29.4443 18.0547 31.2861 15.0273 31.7471 11.073C31.9922 8.97705 31.7861 7.14941 31.6436 6.24927C31.6494 6.20093 31.6533 6.15161 31.6533 6.10181C31.6533 4.31763 33.1064 2.86621 34.8926 2.86621C36.6787 2.86621 38.1328 4.31763 38.1328 6.10181C38.1328 6.1582 38.1367 6.21436 38.1445 6.27026C38.1465 6.28198 38.2754 7.45483 37.5527 8.29712C36.9609 8.9873 35.9141 9.33716 34.4424 9.33716C33.7959 9.33716 33.2705 9.86694 33.2705 10.5203C33.2705 11.1736 33.7959 11.7031 34.4424 11.7031C36.625 11.7031 38.2666 11.0784 39.3242 9.84619C40.6211 8.33545 40.5254 6.49854 40.4756 6.02686ZM25.1895 17.821C24.2041 18.3918 23.0869 18.7627 21.8691 18.9236C17.7861 19.4622 10.6416 19.1211 8.66309 10.7856C7.6377 6.46606 5.66797 5.46802 3.3877 4.31226C3.29785 4.26709 3.20703 4.22119 3.11621 4.17456C3.17773 4.12622 3.24707 4.08765 3.32422 4.06226C5.84766 3.21851 8.17383 3.6582 11.1016 5.53271C14.2549 7.55127 17.8066 8.71094 21.374 8.88672C23.1963 8.97656 24.8096 8.90698 26.1709 8.67944C27.1475 8.5166 28.458 8.03125 29.4512 7.6228C29.5273 8.47095 29.5635 9.61914 29.4121 10.8621C29.0205 14.083 27.5996 16.4246 25.1895 17.821ZM14.4912 21.4834L24.4131 21.4834C24.8789 21.4834 25.2578 21.8594 25.2578 22.321L25.2578 23.1343L13.6455 23.1343L13.6455 22.321C13.6455 21.8594 14.0254 21.4834 14.4912 21.4834Z" fill-rule="nonzero" fill="#FF7010"/>
	<path id="Vector" d="M34.8926 0.5C32.165 0.5 29.8887 2.47388 29.4053 5.073C28.4463 5.49878 26.7803 6.17969 25.7881 6.34546C24.5908 6.54492 23.1445 6.60522 21.4883 6.52344C18.3252 6.36768 15.168 5.33423 12.3564 3.53442C8.81934 1.27002 5.80566 0.73999 2.58691 1.81616C1.33887 2.23364 0.5 3.41211 0.5 4.74927C0.5 5.18237 0.734375 5.58105 1.1123 5.78833C1.54297 6.0249 1.94629 6.22949 2.33594 6.427C4.44922 7.49756 5.61328 8.0874 6.38379 11.3372C6.95996 13.7637 7.96777 15.7976 9.38086 17.3821C10.2627 18.3726 11.3066 19.1907 12.4941 19.8264C11.7676 20.4141 11.3027 21.314 11.3027 22.321L11.3027 24.3169C11.3027 24.9705 11.8271 25.5 12.4736 25.5L26.4297 25.5C27.0771 25.5 27.6016 24.9705 27.6016 24.3169L27.6016 22.321C27.6016 21.3186 27.1406 20.4224 26.4199 19.8345C29.4443 18.0547 31.2861 15.0273 31.7471 11.073C31.9922 8.97705 31.7861 7.14941 31.6436 6.24927C31.6494 6.20093 31.6533 6.15161 31.6533 6.10181C31.6533 4.31763 33.1064 2.86621 34.8926 2.86621C36.6787 2.86621 38.1328 4.31763 38.1328 6.10181C38.1328 6.1582 38.1367 6.21436 38.1445 6.27026C38.1465 6.28198 38.2754 7.45483 37.5527 8.29712C36.9609 8.9873 35.9141 9.33716 34.4424 9.33716C33.7959 9.33716 33.2705 9.86694 33.2705 10.5203C33.2705 11.1736 33.7959 11.7031 34.4424 11.7031C36.625 11.7031 38.2666 11.0784 39.3242 9.84619C40.6211 8.33545 40.5254 6.49854 40.4756 6.02686C40.4355 2.97241 37.9473 0.5 34.8926 0.5ZM21.8691 18.9236C17.7861 19.4622 10.6416 19.1211 8.66309 10.7856C7.6377 6.46606 5.66797 5.46802 3.3877 4.31226C3.29785 4.26709 3.20703 4.22119 3.11621 4.17456C3.17773 4.12622 3.24707 4.08765 3.32422 4.06226C5.84766 3.21851 8.17383 3.6582 11.1016 5.53271C14.2549 7.55127 17.8066 8.71094 21.374 8.88672C23.1963 8.97656 24.8096 8.90698 26.1709 8.67944C27.1475 8.5166 28.458 8.03125 29.4512 7.6228C29.5273 8.47095 29.5635 9.61914 29.4121 10.8621C29.0205 14.083 27.5996 16.4246 25.1895 17.821C24.2041 18.3918 23.0869 18.7627 21.8691 18.9236ZM24.4131 21.4834C24.8789 21.4834 25.2578 21.8594 25.2578 22.321L25.2578 23.1343L13.6455 23.1343L13.6455 22.321C13.6455 21.8594 14.0254 21.4834 14.4912 21.4834L24.4131 21.4834Z" stroke="#FFFFFF"/>
</svg>
