<svg width="42.000000" height="42.000000" viewBox="0 0 42 42" fill="none" xmlns="http://www.w3.org/2000/svg" xmlns:xlink="http://www.w3.org/1999/xlink">
	<desc>
			Created with Pixso.
	</desc>
	<defs/>
	<path id="Vector" d="M21 1C9.97168 1 1 9.97217 1 21C1 32.0278 9.97168 41 21 41C32.0283 41 41 32.0278 41 21C41 9.97217 32.0283 1 21 1ZM21 37.3635C11.9766 37.3635 4.63672 30.0229 4.63672 21C4.63672 11.9771 11.9766 4.63647 21 4.63647C30.0234 4.63647 37.3633 11.9771 37.3633 21C37.3633 30.0229 30.0234 37.3635 21 37.3635Z" fill-rule="nonzero" fill="#FF7010"/>
	<path id="Vector" d="M1 21C1 32.0278 9.97168 41 21 41C32.0283 41 41 32.0278 41 21C41 9.97217 32.0283 1 21 1C9.97168 1 1 9.97217 1 21ZM4.63672 21C4.63672 11.9771 11.9766 4.63647 21 4.63647C30.0234 4.63647 37.3633 11.9771 37.3633 21C37.3633 30.0229 30.0234 37.3635 21 37.3635C11.9766 37.3635 4.63672 30.0229 4.63672 21Z" stroke="#FFFFFF" stroke-width="2.000000"/>
	<path id="Vector" d="M17.5723 26.7549C17.0186 25.9172 15.8906 25.6875 15.0527 26.241C14.2148 26.7947 13.9854 27.9231 14.5391 28.7605L15.04 29.5188C15.5928 30.354 16.7197 30.5879 17.5596 30.0325C18.3975 29.479 18.6279 28.3506 18.0732 27.5132L17.5723 26.7549Z" fill-rule="nonzero" fill="#FF7010"/>
	<path id="Vector" d="M15.0527 26.241C14.2148 26.7947 13.9854 27.9231 14.5391 28.7605L15.04 29.5188C15.5928 30.354 16.7197 30.5879 17.5596 30.0325C18.3975 29.479 18.6279 28.3506 18.0732 27.5132L17.5723 26.7549C17.0186 25.9172 15.8906 25.6875 15.0527 26.241Z" stroke="#FFFFFF"/>
	<path id="Vector" d="M14.8096 16.0962L15.2588 15.3059C15.7549 14.4326 15.4492 13.3228 14.5762 12.8267C13.7031 12.3306 12.5938 12.636 12.0977 13.5088L11.6484 14.2991C11.1514 15.1721 11.457 16.282 12.3301 16.7783C13.209 17.2776 14.3164 16.9634 14.8096 16.0962Z" fill-rule="nonzero" fill="#FF7010"/>
	<path id="Vector" d="M15.2588 15.3059C15.7549 14.4326 15.4492 13.3228 14.5762 12.8267C13.7031 12.3306 12.5938 12.636 12.0977 13.5088L11.6484 14.2991C11.1514 15.1721 11.457 16.282 12.3301 16.7783C13.209 17.2776 14.3164 16.9634 14.8096 16.0962L15.2588 15.3059Z" stroke="#FFFFFF"/>
	<path id="Vector" d="M27.3066 28.217L26.4053 28.0984C25.4102 27.9666 24.4961 28.6682 24.3652 29.6638C24.2344 30.6592 24.9355 31.5725 25.9307 31.7036L26.832 31.822C26.9121 31.8328 26.9922 31.8379 27.0713 31.8379C27.9697 31.8379 28.752 31.1716 28.8721 30.2568C29.0029 29.2615 28.3018 28.3479 27.3066 28.217Z" fill-rule="nonzero" fill="#FF7010"/>
	<path id="Vector" d="M26.4053 28.0984C25.4102 27.9666 24.4961 28.6682 24.3652 29.6638C24.2344 30.6592 24.9355 31.5725 25.9307 31.7036L26.832 31.822C26.9121 31.8328 26.9922 31.8379 27.0713 31.8379C27.9697 31.8379 28.752 31.1716 28.8721 30.2568C29.0029 29.2615 28.3018 28.3479 27.3066 28.217L26.4053 28.0984Z" stroke="#FFFFFF"/>
	<path id="Vector" d="M29.5254 14.0837C29.2598 13.1155 28.2617 12.5447 27.292 12.8103C26.3232 13.0754 25.7529 14.0754 26.0186 15.0439L26.2578 15.9207C26.5215 16.8823 27.5166 17.4612 28.4922 17.1941C29.46 16.929 30.0303 15.929 29.7656 14.9604L29.5254 14.0837Z" fill-rule="nonzero" fill="#FF7010"/>
	<path id="Vector" d="M27.292 12.8103C26.3232 13.0754 25.7529 14.0754 26.0186 15.0439L26.2578 15.9207C26.5215 16.8823 27.5166 17.4612 28.4922 17.1941C29.46 16.929 30.0303 15.929 29.7656 14.9604L29.5254 14.0837C29.2598 13.1155 28.2617 12.5447 27.292 12.8103Z" stroke="#FFFFFF"/>
	<path id="Vector" d="M22.3018 18.2881C21.6055 17.5637 20.4551 17.54 19.7305 18.2358C19.0068 18.9312 18.9834 20.0823 19.6787 20.8066L20.3086 21.4624C21.0049 22.1875 22.1562 22.209 22.8789 21.5144C23.6035 20.8191 23.627 19.6682 22.9316 18.9438L22.3018 18.2881Z" fill-rule="nonzero" fill="#FF7010"/>
	<path id="Vector" d="M19.7305 18.2358C19.0068 18.9312 18.9834 20.0823 19.6787 20.8066L20.3086 21.4624C21.0049 22.1875 22.1562 22.209 22.8789 21.5144C23.6035 20.8191 23.627 19.6682 22.9316 18.9438L22.3018 18.2881C21.6055 17.5637 20.4551 17.54 19.7305 18.2358Z" stroke="#FFFFFF"/>
</svg>
