<svg width="28.000000" height="40.000000" viewBox="0 0 28 40" fill="none" xmlns="http://www.w3.org/2000/svg" xmlns:xlink="http://www.w3.org/1999/xlink">
	<desc>
			Created with Pixso.
	</desc>
	<defs/>
	<path id="Vector" d="M28 25.1118C28 21.2473 24.8398 18.7324 21.7832 16.302C19.0752 14.1487 16.5186 12.1135 16.2148 9.31494C16.2031 8.94702 16.0889 4.49976 17.3125 0.775391C17.3438 0.679932 17.3496 0.578125 17.3311 0.479492C17.3125 0.381104 17.2686 0.288818 17.2041 0.211914C17.1396 0.134766 17.0576 0.0754395 16.9639 0.0395508C16.8701 0.00341797 16.7695 -0.00830078 16.6699 0.00561523C15.8584 0.121094 15.1094 0.505615 14.541 1.09766C14.3389 1.30859 14.1572 1.53784 13.9971 1.78247C13.8379 1.53687 13.6562 1.3064 13.4551 1.09351C12.8877 0.50415 12.1396 0.121582 11.3301 0.00708008C11.2305 -0.00683594 11.1299 0.00463867 11.0361 0.0407715C10.9424 0.0769043 10.8604 0.13623 10.7959 0.213135C10.7314 0.290283 10.6875 0.382324 10.6689 0.480957C10.6504 0.57959 10.6562 0.681396 10.6875 0.776611C11.9111 4.50269 11.7969 8.9502 11.7852 9.31641C11.4814 12.1135 8.9248 14.1487 6.2168 16.3035C3.16016 18.7336 0 21.2478 0 25.1133C0 31.9734 5.37109 37.0337 12.9199 37.4758C12.6816 38.0259 12.3818 38.5466 12.0264 39.0286C11.9307 39.1445 11.8818 39.293 11.8916 39.4434C11.9014 39.5938 11.9678 39.7349 12.0781 39.8376C12.1885 39.9404 12.333 39.9973 12.4834 39.9966C12.6338 39.9958 12.7783 39.9375 12.8877 39.8335C12.9092 39.8127 12.9297 39.79 12.9482 39.7661C12.9941 39.7068 13.1836 39.4519 13.4102 39.0867L13.4102 39.4094C13.4102 39.5659 13.4727 39.7163 13.583 39.8269C13.6934 39.9377 13.8438 40 14 40C14.1562 40 14.3066 39.9377 14.417 39.8269C14.5273 39.7163 14.5898 39.5659 14.5898 39.4094L14.5898 39.0867C14.8154 39.4519 15.0059 39.7068 15.0518 39.7661C15.0703 39.79 15.0908 39.8127 15.1123 39.8335L15.1162 39.8369C15.1719 39.8904 15.2383 39.9321 15.3105 39.96C15.3818 39.9875 15.459 40.0007 15.5361 39.9988C15.6133 39.9968 15.6895 39.9795 15.7607 39.9478C15.8311 39.9163 15.8945 39.8711 15.9473 39.8147C16.0459 39.7112 16.1035 39.5754 16.1094 39.4329C16.1152 39.2903 16.0703 39.1501 15.9814 39.0383C15.6221 38.553 15.3193 38.0278 15.0801 37.4736C22.6289 37.0325 28 31.9719 28 25.1118ZM14.0078 36.3276L14 36.3276L13.9922 36.3276C12.8623 36.3093 11.3047 32.4136 11.3047 25.1118C11.3047 21.6221 12.0381 19.2417 12.7471 16.9399C13.3125 15.2559 13.7314 13.5261 14 11.77C14.2686 13.5261 14.6875 15.2559 15.2529 16.9399C15.9609 19.2417 16.6953 21.6221 16.6953 25.1118C16.6953 32.4136 15.1377 36.3093 14.0078 36.3276ZM11.6201 16.5906C10.8857 18.9771 10.126 21.4434 10.126 25.1118C10.126 29.4324 10.7148 33.7798 11.9863 35.9985C8.51953 34.8218 6.16797 30.603 6.16797 25.1118C6.16797 21.738 7.93457 19.5005 9.80566 17.1321C10.8252 15.8413 11.8643 14.5242 12.5947 13.0073C12.334 14.2712 11.9824 15.4143 11.6201 16.5906ZM16.0137 35.9993C17.2852 33.7805 17.874 29.4343 17.874 25.1125C17.874 21.4441 17.1143 18.9778 16.3799 16.592C16.0176 15.415 15.666 14.2717 15.4062 13.0081C16.1367 14.5249 17.1758 15.8433 18.1953 17.1328C20.0654 19.5012 21.833 21.7388 21.833 25.1125C21.832 30.603 19.4805 34.8218 16.0137 35.9993ZM15.3809 1.92554C15.5264 1.77832 15.6875 1.64771 15.8623 1.53638C15.5762 2.66626 15.3682 3.81445 15.2393 4.9729C15.0684 4.36548 14.877 3.73853 14.6611 3.1145C14.6543 3.09424 14.6445 3.07593 14.6377 3.05566C14.8193 2.63916 15.0703 2.25708 15.3809 1.92554ZM12.6133 1.9209C13.0342 2.375 13.3525 2.91431 13.5469 3.5022C14.124 5.22705 14.583 6.98926 14.9209 8.77661L12.9736 8.77661C12.9893 6.33813 12.709 3.90698 12.1377 1.53638C12.3105 1.64648 12.4697 1.77539 12.6143 1.9209L12.6133 1.9209ZM1.17871 25.1118C1.17871 21.8181 3.98242 19.5886 6.9502 17.2283C8.31445 16.2034 9.59375 15.0686 10.7744 13.8354C10.2119 14.71 9.55371 15.5457 8.87988 16.4006C6.9668 18.8235 4.98926 21.3286 4.98926 25.1133C4.98926 29.6099 6.47363 33.3342 8.86523 35.4919C4.21289 33.8599 1.17871 29.9873 1.17871 25.1118ZM19.1338 35.4905C21.5254 33.333 23.0098 29.6086 23.0098 25.1118C23.0098 21.3274 21.0322 18.8223 19.1191 16.3994C18.4453 15.5457 17.7871 14.7117 17.2246 13.834C18.4053 15.0679 19.6846 16.2029 21.0498 17.2283C24.0176 19.5886 26.8213 21.8188 26.8213 25.1118C26.8213 29.9873 23.7871 33.8599 19.1348 35.4905L19.1338 35.4905Z" fill-rule="nonzero" fill="#FF7010"/>
</svg>
