<svg width="16.000000" height="16.000000" viewBox="0 0 16 16" fill="none" xmlns="http://www.w3.org/2000/svg" xmlns:xlink="http://www.w3.org/1999/xlink">
	<desc>
			Created with Pixso.
	</desc>
	<defs/>
	<path id="Vector" d="M8 0C3.58887 0 0 3.58887 0 8C0 12.4111 3.58887 16 8 16C12.4111 16 16 12.4111 16 8C16 3.58887 12.4111 0 8 0ZM8 15.4482C3.89258 15.4482 0.551758 12.1077 0.551758 8C0.551758 3.89233 3.89258 0.551758 8 0.551758C12.1074 0.551758 15.4482 3.89233 15.4482 8C15.4482 12.1077 12.1074 15.4482 8 15.4482ZM12.4443 5.10059C12.5518 5.20825 12.5518 5.38208 12.4443 5.48975L7.42383 10.5103C7.37109 10.5627 7.30176 10.5903 7.22754 10.5903C7.15332 10.5903 7.08398 10.5601 7.03125 10.5103L4.32812 7.80688C4.2207 7.69922 4.2207 7.52563 4.32812 7.41797C4.43555 7.3103 4.60938 7.3103 4.7168 7.41797L7.22461 9.92554L12.0498 5.10059C12.1602 4.99316 12.3369 4.99316 12.4443 5.10059Z" fill-rule="nonzero" fill="#FF7010"/>
</svg>
