<svg width="35.000000" height="40.000000" viewBox="0 0 35 40" fill="none" xmlns="http://www.w3.org/2000/svg" xmlns:xlink="http://www.w3.org/1999/xlink">
	<desc>
			Created with Pixso.
	</desc>
	<defs/>
	<path id="Shape" d="M2.73145 25.5325C3.05664 26.5 3.30371 27.1985 3.50098 27.7502C4.11035 29.3655 4.52148 31.0476 4.72461 32.7603C5.52246 37.5059 6.18359 39.9829 11.4443 39.9829C12.6699 40.0691 13.8955 39.8291 14.9961 39.2878C16.5381 40.2124 18.4707 40.2148 20.0146 39.2937C21.1123 39.8303 22.335 40.0681 23.5557 39.9829C28.8164 39.9829 29.4775 37.5071 30.2754 32.7622C30.4785 31.0496 30.8896 29.3669 31.499 27.7517C31.6963 27.197 31.9434 26.5015 32.2686 25.5337C32.6572 24.3879 33.1221 23.2683 33.6582 22.1824C34.5938 20.4924 35.0557 18.585 34.9951 16.6584C34.9277 11.9016 31.0508 8.06152 26.2471 7.99512C24.3828 7.89331 22.5322 8.37158 20.9551 9.36279C20.5195 8.99561 20.0361 8.68726 19.5186 8.44629L19.5186 5.79614C19.5186 4.79639 19.8291 4.16211 20.4404 3.90405C20.7734 3.76538 21.0332 3.49487 21.1553 3.15845C21.2852 2.81006 21.2637 2.42432 21.0967 2.09229L20.4072 0.731445C20.0674 0.083252 19.2705 -0.181885 18.6045 0.131592C15.4814 1.64111 15.4814 3.82495 15.4814 5.12964L15.4814 8.43774C14.958 8.67651 14.4697 8.98438 14.0303 9.35278C12.4561 8.36841 10.6113 7.89404 8.75293 7.99512C3.94922 8.06152 0.0722656 11.9016 0.00488281 16.6584C-0.0546875 18.5845 0.40625 20.4915 1.3418 22.1812C1.87793 23.2671 2.34277 24.3865 2.73145 25.5325ZM16.8271 5.12964C16.8271 3.94678 16.8271 2.47412 19.2061 1.33105L19.915 2.67725C19.2646 2.95117 18.1729 3.72095 18.1729 5.79614L18.1729 8.04443C17.9502 8.01172 17.7256 7.99536 17.5 7.99512C17.2744 7.99707 17.0498 8.01514 16.8271 8.04932L16.8271 5.12964ZM8.75293 9.32812C10.249 9.24976 11.7383 9.59082 13.0479 10.3123C12.0146 11.5354 11.1963 12.9209 10.625 14.4114C10.4873 14.7534 10.6543 15.1416 11 15.2783C11.3457 15.4153 11.7373 15.249 11.875 14.9072C13.3057 11.3613 15.3564 9.32812 17.5 9.32812C20.374 9.32812 23.0986 13.1265 24.2812 18.7844C24.3447 19.0945 24.6201 19.3174 24.9404 19.3176C24.9854 19.3171 25.0303 19.3125 25.0742 19.3035C25.4385 19.2288 25.6719 18.8762 25.5967 18.5159C24.8564 14.9878 23.5586 12.155 21.9395 10.3191C23.252 9.59204 24.7461 9.24829 26.2471 9.32812C30.3115 9.38428 33.5918 12.6335 33.6494 16.6584C33.7031 18.3879 33.2852 20.0996 32.4375 21.6125C31.8789 22.7466 31.3955 23.9153 30.9893 25.1113C30.666 26.0696 30.4209 26.7585 30.2256 27.3105C29.5898 28.9983 29.1611 30.7554 28.9473 32.5444C28.168 37.1838 27.7227 38.6501 23.5557 38.6501C22.7842 38.6758 22.0127 38.5859 21.2686 38.3835C22.3018 37.3982 23.1455 36.2349 23.7578 34.9502C23.9238 34.6206 23.7881 34.2202 23.4551 34.0562C23.1221 33.8921 22.7188 34.0261 22.5527 34.3557C21.1582 37.1233 19.3643 38.6501 17.5 38.6501C15.1143 38.6501 12.7803 36.019 11.4082 31.7861C11.2783 31.4585 10.9131 31.2871 10.5752 31.395C10.2363 31.5029 10.042 31.8528 10.1289 32.1938C10.7842 34.5273 12.0283 36.6572 13.7441 38.3828C12.9951 38.5872 12.2197 38.6772 11.4443 38.6501C7.27734 38.6501 6.83203 37.1838 6.05176 32.5425C5.83789 30.7537 5.40918 28.9966 4.77344 27.3091C4.57812 26.76 4.33301 26.0708 4.00977 25.1099C3.60449 23.9146 3.12012 22.7463 2.5625 21.6125C1.71484 20.0996 1.29688 18.3879 1.35059 16.6584C1.4082 12.6335 4.68848 9.38428 8.75293 9.32812Z" fill-rule="nonzero" fill="#FF7010"/>
</svg>
