<svg width="40.000000" height="40.000000" viewBox="0 0 40 40" fill="none" xmlns="http://www.w3.org/2000/svg" xmlns:xlink="http://www.w3.org/1999/xlink">
	<desc>
			Created with Pixso.
	</desc>
	<defs/>
	<path id="Vector" d="M24.0527 16.1406C19.3662 11.4536 16.833 10.5122 15.1572 9.88916C14.4492 9.62598 14.0225 9.46704 13.6631 9.10742C13.3496 8.79492 13.3848 8.53735 13.5215 8.40063C13.6787 8.24365 13.9053 8.29077 14.1445 8.52979C14.1836 8.56909 14.2266 8.60352 14.2715 8.6333C15.0986 9.39331 16.1641 9.80981 17.2939 9.80981C18.4883 9.80981 19.6113 9.34473 20.4561 8.50024C22.1992 6.75684 22.1992 3.92041 20.4561 2.17725C18.6416 0.363037 15.9727 -0.352295 12.9404 0.163086C10.0107 0.661133 7.07227 2.2605 4.66602 4.66626C2.26074 7.07202 0.661133 10.0105 0.163086 12.9404C-0.352539 15.9724 0.363281 18.6416 2.17676 20.4558C3.9209 22.1992 6.75684 22.199 8.5 20.4558C10.2314 18.7249 10.2432 15.9158 8.53613 14.1694C8.53125 14.1641 8.52637 14.1589 8.52051 14.1536C8.28223 13.9146 8.23438 13.6873 8.3916 13.5305C8.52832 13.3936 8.78613 13.3589 9.09863 13.6716C9.45801 14.031 9.61719 14.4585 9.88086 15.1665C10.5029 16.8423 11.4453 19.375 16.1318 24.062C16.29 24.2207 16.498 24.2998 16.7061 24.2998C16.9141 24.2998 17.1221 24.2207 17.2803 24.0623L24.0527 17.2896C24.3701 16.9722 24.3701 16.458 24.0527 16.1406ZM16.71 22.3345C12.7686 18.2715 11.9512 16.0757 11.4033 14.6006C11.1104 13.813 10.8574 13.1328 10.2471 12.5227C9.74316 12.0186 9.17383 11.8086 8.64355 11.8086C8.09863 11.8086 7.59473 12.03 7.24316 12.3813C6.55957 13.0649 6.37598 14.2651 7.3291 15.2578C7.33594 15.2659 7.34375 15.2737 7.35156 15.2812C8.46094 16.3911 8.46094 18.1968 7.35156 19.3066C6.24121 20.4165 4.43555 20.4165 3.32617 19.3066C1.89453 17.8752 1.33984 15.7107 1.76465 13.2124C2.20703 10.6118 3.64551 7.98462 5.81543 5.81494C7.98438 3.64526 10.6123 2.20679 13.2129 1.76465C15.7109 1.33984 17.875 1.89453 19.3066 3.32593C20.417 4.43579 20.417 6.24146 19.3066 7.35132C18.7695 7.88892 18.0547 8.18481 17.2939 8.18481C16.5342 8.18481 15.8193 7.88892 15.2812 7.35132C15.2383 7.30811 15.1914 7.27075 15.1416 7.23901C14.1709 6.39893 13.0312 6.59277 12.373 7.25171C11.6787 7.9458 11.4922 9.23462 12.5137 10.2561C13.124 10.8665 13.8037 11.1191 14.5918 11.4119C16.0664 11.9602 18.2627 12.7769 22.3262 16.7192L16.71 22.3345Z" fill-rule="nonzero" fill="#FF7010"/>
	<path id="Vector" d="M39.8604 28.4194C39.4375 25.9316 38.0811 23.4382 36.041 21.3979C34.001 19.3579 31.5078 18.0015 29.0195 17.5784C26.4297 17.1382 24.1465 17.752 22.5918 19.3066C21.0771 20.822 21.0771 23.2874 22.5918 24.8027C23.3262 25.5369 24.3018 25.9409 25.3398 25.9409C26.3623 25.9409 27.3252 25.5486 28.0557 24.8347C28.0605 24.8301 28.0654 24.8252 28.0703 24.8203C28.1621 24.728 28.2539 24.6746 28.3223 24.6736C28.3623 24.6709 28.3926 24.6941 28.4102 24.7119C28.4277 24.7295 28.457 24.7683 28.4561 24.8281C28.4551 24.9128 28.3965 25.0173 28.291 25.1221C27.9639 25.4497 27.3213 25.8081 26.5088 26.262C24.5469 27.3564 21.582 29.0107 17.6699 32.9233C17.5176 33.0757 17.4316 33.2822 17.4316 33.4976C17.4316 33.7129 17.5176 33.9197 17.6699 34.072L23.3594 39.762C23.5186 39.9204 23.7266 40 23.9336 40C24.1416 40 24.3496 39.9204 24.5088 39.762C28.4209 35.8496 30.0752 32.8848 31.1699 30.9231C31.624 30.1099 31.9824 29.4675 32.3096 29.1401C32.4727 28.9771 32.6299 28.9316 32.7197 29.0215C32.8203 29.1221 32.6953 29.2776 32.6113 29.3616C32.5752 29.3982 32.542 29.4377 32.5137 29.4792C31.8574 30.197 31.498 31.1204 31.498 32.0994C31.498 33.1372 31.9023 34.1133 32.6367 34.8472C34.1514 36.3625 36.6172 36.3625 38.1318 34.8472C39.6875 33.2922 40.3008 31.0095 39.8604 28.4194ZM36.9834 33.6985C36.1016 34.5803 34.667 34.5803 33.7852 33.6985C33.3574 33.2712 33.123 32.7034 33.123 32.0994C33.123 31.4951 33.3574 30.9272 33.7852 30.5002C33.8262 30.459 33.8623 30.4143 33.8926 30.3672C34.6328 29.5002 34.4492 28.4534 33.8682 27.8728C33.2412 27.2451 32.0791 27.0735 31.1611 27.9915C30.6738 28.4788 30.2861 29.1719 29.751 30.1316C28.7549 31.9165 27.2764 34.5664 23.9287 38.0337L19.3975 33.5024C22.8652 30.1553 25.5146 28.6765 27.2998 27.6807C28.2598 27.1453 28.9531 26.7583 29.4404 26.271C30.3584 25.353 30.1865 24.1907 29.5586 23.563C28.9551 22.9595 27.8477 22.7852 26.9619 23.6316C26.9541 23.6389 26.9463 23.6462 26.9385 23.6541C26.0566 24.5359 24.6221 24.5359 23.7402 23.6541C23.3135 23.2268 23.0781 22.6589 23.0781 22.0549C23.0781 21.4509 23.3135 20.8828 23.7402 20.4558C24.9121 19.2837 26.6904 18.8308 28.7471 19.1804C30.9053 19.5474 33.0879 20.7429 34.8916 22.5469C36.6963 24.3511 37.8916 26.5334 38.2588 28.6919C38.6084 30.7483 38.1553 32.5264 36.9834 33.6985Z" fill-rule="nonzero" fill="#FF7010"/>
</svg>
