<svg width="24.000000" height="24.000000" viewBox="0 0 24 24" fill="none" xmlns="http://www.w3.org/2000/svg" xmlns:xlink="http://www.w3.org/1999/xlink">
	<desc>
			Created with Pixso.
	</desc>
	<defs/>
	<path id="Vector" d="M12.0332 10C11.6191 10 11.2832 10.3711 11.2832 10.8296L11.2832 16.1704C11.2832 16.6289 11.6191 17 12.0332 17C12.4473 17 12.7832 16.6284 12.7832 16.1704L12.7832 10.8296C12.7832 10.3711 12.4473 10 12.0332 10Z" fill-rule="nonzero" fill="#A5A5A5"/>
	<path id="Vector" d="M13 8C13 8.55225 12.5527 9 12 9C11.4473 9 11 8.55225 11 8C11 7.44775 11.4473 7 12 7C12.5527 7 13 7.44775 13 8Z" fill-rule="evenodd" fill="#A5A5A5"/>
	<circle id="Ellipse 6" cx="12.000000" cy="12.000000" r="11.250000" stroke="#A5A5A5" stroke-width="1.500000"/>
</svg>
