<svg width="40.000000" height="40.000000" viewBox="0 0 40 40" fill="none" xmlns="http://www.w3.org/2000/svg" xmlns:xlink="http://www.w3.org/1999/xlink">
	<desc>
			Created with Pixso.
	</desc>
	<defs/>
	<path id="Vector" d="M39.4521 13.781C39.8828 12.0964 39.7891 10.385 39.1855 8.94897C38.834 8.11206 38.3291 7.41016 37.7061 6.87549L38.0215 5.28101C38.1602 4.5791 38.4971 3.93066 38.9961 3.40625C39.4922 2.88477 39.499 2.09253 39.0107 1.56348L37.8818 0.338623C37.6523 0.0905762 37.3135 -0.0332031 36.9736 0.0078125C36.6338 0.048584 36.3359 0.249023 36.1758 0.543701L35.6807 1.45679C35.2939 2.17017 34.9639 2.91406 34.6924 3.67676C34.4531 3.18774 34.1123 2.68457 33.6113 2.24487C33.8125 1.78149 33.9854 1.27319 34.125 0.727051C34.2051 0.413086 34.0078 0.0952148 33.6855 0.017334C33.3633 -0.0603027 33.0371 0.130859 32.957 0.444824C32.8584 0.831543 32.7383 1.19897 32.6016 1.54126C31.2783 0.818604 29.6621 0.601318 28.6699 1.37988C27.9902 1.91235 27.5283 3.01562 27.9316 3.94043C28.3301 4.8562 29.4189 5.25439 30.2637 5.23535C31.2979 5.21289 32.2773 4.51489 33.0342 3.33594C33.5439 3.86499 33.9111 4.72852 33.9541 5.64502C32.9326 5.66528 31.8936 5.91553 30.9043 6.39331C29.3359 7.15112 27.9844 8.42065 27.0967 9.9707C26.5244 10.9854 25.8965 11.9856 25.2285 12.9458C24.9814 12.8862 24.7207 12.8779 24.4658 12.9229C23.7148 13.0547 23.1309 13.6362 23.0117 14.3701C22.9443 14.7842 23.0264 15.198 23.2422 15.5503C21.8301 17.2446 20.2578 18.8284 18.5645 20.259C18.3135 20.4712 18.2871 20.8413 18.5049 21.0857C18.7227 21.3301 19.1025 21.3562 19.3535 21.144C21.1387 19.6348 22.7959 17.9604 24.2773 16.1677C24.5547 15.832 24.5654 15.3481 24.3037 14.991C24.2383 14.9021 24.168 14.7542 24.2002 14.5527C24.2393 14.3149 24.4355 14.1187 24.6787 14.0759C24.7861 14.0571 24.8906 14.0645 24.9883 14.0972C25.4121 14.24 25.8877 14.0837 26.1445 13.7178C26.8633 12.6924 27.5381 11.6216 28.1494 10.5381C29.5225 8.13989 32.0557 6.69604 34.416 6.82861C34.2041 6.98877 33.9912 7.14722 33.7783 7.30176C32.9482 7.90479 32.208 8.62427 31.5723 9.44434C31.4688 9.42651 31.3623 9.4165 31.2539 9.4165C30.2588 9.4165 29.4482 10.2053 29.4482 11.1746C29.4482 11.5874 29.5957 11.967 29.8408 12.2673C27.9814 15.429 25.7002 18.3328 23.0498 20.9102C22.8447 20.8308 22.6211 20.7866 22.3867 20.7866C21.3916 20.7866 20.5811 21.5754 20.5811 22.5449C20.5811 22.7246 20.6094 22.8984 20.6611 23.062C16.376 26.6338 11.4834 29.293 6.11133 30.9683C4.50293 31.4712 3.02246 32.3154 1.8291 33.4094C1.63574 33.5869 1.43848 33.7632 1.24023 33.9382C1.51562 31.6528 3.41504 29.4734 6.07617 28.574C6.75 28.3508 7.43066 28.105 8.09961 27.843C8.53223 27.6736 8.79004 27.2273 8.71289 26.7817C8.70508 26.7368 8.70312 26.6907 8.70703 26.6443C8.72852 26.3464 8.99609 26.1023 9.30273 26.1003C9.49023 26.0984 9.66016 26.1792 9.77637 26.3203C10.0654 26.6714 10.5791 26.7786 10.9971 26.5754C13.1484 25.532 15.2148 24.2903 17.1396 22.8848C17.4053 22.6907 17.459 22.3232 17.2598 22.0645C17.0605 21.8057 16.6836 21.7532 16.418 21.9473C14.5928 23.2803 12.6357 24.4614 10.5986 25.4592C10.2568 25.1167 9.79004 24.9275 9.29395 24.9285C8.3584 24.9351 7.57324 25.6519 7.50684 26.5605C7.5 26.6443 7.5 26.7283 7.50684 26.8118C6.9043 27.0449 6.29297 27.2644 5.68555 27.4658C3.9668 28.0466 2.44824 29.1223 1.41016 30.4949C0.307617 31.9517 -0.172852 33.6575 0.0556641 35.2966C0.0566406 35.3018 0.0576172 35.3066 0.0585938 35.3118C0.0585938 35.313 0.0585938 35.3142 0.0585938 35.3154C0.0585938 35.3167 0.0595703 35.3176 0.0595703 35.3186C0.250977 36.6724 1.06348 37.8901 2.34961 38.749C3.58301 39.573 5.11426 40 6.74023 40C7.47461 40 8.22852 39.9131 8.9834 39.7361C9.30566 39.6604 9.50488 39.344 9.42676 39.0293C9.34961 38.7148 9.02441 38.521 8.70117 38.5969C6.6377 39.0806 4.51758 38.7764 3.03027 37.7827C2.375 37.345 1.87891 36.7952 1.57324 36.1812C1.88184 36.2893 2.19141 36.3948 2.50098 36.4958C3.33008 36.7686 4.21875 36.9048 5.12402 36.9048C6.05469 36.9048 7.00293 36.7607 7.92285 36.4727C8.3291 36.3459 8.7373 36.2126 9.1416 36.0747C9.47266 36.4504 9.96387 36.6892 10.5107 36.6892C11.5059 36.6892 12.3164 35.9004 12.3164 34.9309C12.3164 34.9102 12.3154 34.8894 12.3145 34.8687C14.4521 33.9695 16.5342 32.9128 18.5176 31.7205C18.8291 31.9685 19.2256 32.1177 19.6582 32.1177C20.6543 32.1177 21.4639 31.3289 21.4639 30.3594C21.4639 30.1826 21.4365 30.0122 21.3867 29.8511C24.9609 27.3403 28.1572 24.3706 30.8994 21.0137C31.0742 21.0688 31.2607 21.0991 31.4541 21.0991C32.4502 21.0991 33.2598 20.3103 33.2598 19.3411C33.2598 18.967 33.1387 18.6201 32.9336 18.335C33.792 17.115 34.5977 15.8455 35.332 14.5542C35.4932 14.271 35.3877 13.9146 35.0977 13.7578C34.8066 13.6011 34.4404 13.7034 34.2793 13.9866C33.5674 15.2383 32.7871 16.4692 31.9551 17.6523C31.7959 17.6074 31.6279 17.583 31.4541 17.583C30.459 17.583 29.6494 18.3716 29.6494 19.3411C29.6494 19.6953 29.7578 20.0251 29.9434 20.3015C27.2715 23.5703 24.1562 26.4617 20.6738 28.9067C20.3848 28.7144 20.0352 28.6016 19.6582 28.6016C18.6631 28.6016 17.8535 29.3901 17.8535 30.3596C17.8535 30.4829 17.8662 30.6035 17.8916 30.7197C15.9678 31.8772 13.9463 32.9041 11.8721 33.7786C11.541 33.408 11.0537 33.1731 10.5107 33.1731C9.51562 33.1731 8.70605 33.9617 8.70605 34.9312C8.70605 34.9475 8.70605 34.9636 8.70703 34.9797C8.32422 35.1099 7.93945 35.2371 7.55469 35.3572C6.00684 35.842 4.30469 35.8525 2.88477 35.3855C2.52539 35.2681 2.16504 35.1453 1.80762 35.0183C2.09473 34.7693 2.37793 34.5166 2.6543 34.2625C3.71777 33.2874 5.04102 32.5342 6.47852 32.0842C11.9775 30.3696 16.9893 27.6523 21.3818 24.0046C21.6689 24.1931 22.0156 24.3032 22.3867 24.3032C23.3828 24.3032 24.1924 23.5144 24.1924 22.5449C24.1924 22.2317 24.1074 21.9375 23.959 21.6824C26.6484 19.0566 28.9668 16.1033 30.8613 12.8906C30.9883 12.918 31.1191 12.9329 31.2539 12.9329C32.249 12.9329 33.0596 12.1443 33.0596 11.1748C33.0596 10.7397 32.8955 10.3413 32.626 10.0339C33.1729 9.35107 33.7998 8.74878 34.4971 8.2417C34.8027 8.02026 35.1074 7.79272 35.4092 7.56055C35.4756 7.92554 35.5371 8.29248 35.5938 8.65796C35.7402 9.59229 35.666 10.6094 35.3818 11.5991C35.292 11.9106 35.4785 12.2341 35.7979 12.3215C35.8525 12.3362 35.9072 12.3433 35.9609 12.3433C36.2236 12.3433 36.4658 12.1741 36.54 11.9155C36.8711 10.7668 36.9551 9.57935 36.7832 8.48267C36.7344 8.16748 36.6816 7.85107 36.626 7.5354C38.2246 8.66284 38.9346 11.0984 38.2568 13.6008C38.1592 13.9629 38.2861 14.3525 38.5811 14.5938C38.7324 14.7173 38.8105 14.8987 38.7949 15.0916C38.7754 15.3367 38.5889 15.5503 38.3418 15.6111C38.2686 15.6292 38.1982 15.6338 38.126 15.6252C37.7178 15.5767 37.3242 15.7678 37.124 16.1118C34.6445 20.366 31.5322 24.2271 27.874 27.5884C27.5107 27.9226 27.4531 28.4553 27.7373 28.855C27.7959 28.9373 27.8613 29.0737 27.8398 29.2581C27.8076 29.5315 27.5703 29.7524 27.2871 29.7722C27.125 29.7834 26.9688 29.7327 26.8477 29.6294C26.4697 29.3069 25.918 29.2976 25.5361 29.6074C23.0732 31.605 20.4023 33.3816 17.5967 34.8877C17.1914 35.1055 16.9912 35.5596 17.1104 35.9919C17.1318 36.0691 17.1367 36.1497 17.124 36.2317C17.0869 36.479 16.8779 36.6851 16.625 36.7217C16.4102 36.7527 16.2002 36.675 16.0645 36.5132C15.7734 36.1667 15.2744 36.061 14.8516 36.2563C13.6768 36.7988 12.4668 37.3027 11.2559 37.7537C10.9453 37.8691 10.79 38.2078 10.9082 38.5103C11 38.7437 11.2285 38.887 11.4707 38.887C11.542 38.887 11.6143 38.8745 11.6855 38.8481C12.8818 38.4026 14.0771 37.9067 15.2412 37.3733C15.6455 37.7771 16.2188 37.9653 16.8027 37.8806C17.5801 37.7678 18.2021 37.1589 18.3154 36.4001C18.3428 36.2129 18.3408 36.0264 18.3086 35.8435C21.0859 34.3423 23.7324 32.5823 26.1807 30.6091C26.5244 30.854 26.9424 30.9709 27.373 30.9409C28.2383 30.8806 28.9375 30.2283 29.0352 29.3901C29.0781 29.021 29.001 28.6511 28.8184 28.3315C32.4814 24.9446 35.6055 21.0662 38.1064 16.7991C38.2842 16.8079 38.4619 16.7905 38.6367 16.7473C39.3887 16.562 39.9346 15.9336 39.9941 15.1831C40.0361 14.6587 39.835 14.1438 39.4521 13.781ZM30.2373 4.06372C29.8604 4.07227 29.2178 3.89307 29.0391 3.48315C28.874 3.104 29.1064 2.54199 29.4248 2.29272C29.6348 2.1272 29.9316 2.05103 30.2715 2.05103C30.8203 2.05103 31.4824 2.24951 32.082 2.59351C31.5361 3.49072 30.8691 4.05005 30.2373 4.06372ZM31.4541 18.7546C31.7861 18.7546 32.0566 19.0176 32.0566 19.3408C32.0566 19.6643 31.7861 19.9272 31.4541 19.9272C31.1221 19.9272 30.8525 19.6643 30.8525 19.3408C30.8525 19.0176 31.1221 18.7546 31.4541 18.7546ZM19.6582 29.7732C19.9902 29.7732 20.2607 30.0361 20.2607 30.3594C20.2607 30.6826 19.9902 30.9458 19.6582 30.9458C19.3262 30.9458 19.0566 30.6826 19.0566 30.3594C19.0566 30.0361 19.3262 29.7732 19.6582 29.7732ZM10.5107 34.3447C10.8428 34.3447 11.1123 34.6077 11.1123 34.9309C11.1123 35.2542 10.8428 35.5173 10.5107 35.5173C10.1787 35.5173 9.9082 35.2542 9.9082 34.9309C9.9082 34.6077 10.1787 34.3447 10.5107 34.3447ZM22.3867 23.1311C22.0547 23.1311 21.7852 22.8682 21.7852 22.5449C21.7852 22.2217 22.0547 21.9585 22.3867 21.9585C22.7188 21.9585 22.9893 22.2217 22.9893 22.5449C22.9893 22.8682 22.7188 23.1311 22.3867 23.1311ZM31.2539 11.761C30.9219 11.761 30.6514 11.498 30.6514 11.1748C30.6514 10.8513 30.9219 10.5884 31.2539 10.5884C31.5859 10.5884 31.8555 10.8513 31.8555 11.1748C31.8555 11.498 31.5859 11.761 31.2539 11.761ZM36.7441 2.00415L37.1357 1.28345L38.1152 2.34644C38.1855 2.42212 38.1846 2.5354 38.1133 2.60986C37.4619 3.29517 37.0215 4.14209 36.8398 5.05933L36.6191 6.17212C36.2803 6.01489 35.874 5.86914 35.3115 5.75854L35.5479 4.93457C35.8369 3.9209 36.2402 2.93481 36.7441 2.00415Z" fill-rule="nonzero" fill="#FF7010"/>
</svg>
