<svg width="24.000000" height="24.000000" viewBox="0 0 24 24" fill="none" xmlns="http://www.w3.org/2000/svg" xmlns:xlink="http://www.w3.org/1999/xlink">
	<desc>
			Created with Pixso.
	</desc>
	<defs>
		<clipPath id="clip4_2674">
			<rect width="24.000000" height="24.000000" fill="white"/>
		</clipPath>
	</defs>
	<g clip-path="url(#clip4_2674)">
		<path d="M7.78125 15.5L20.4846 15.5C20.7992 15.5 21.0751 15.293 21.1603 14.9922L23.9729 5.19189C24.0333 4.98096 23.9919 4.75391 23.8589 4.57812C23.7256 4.40332 23.5183 4.2998 23.2971 4.2998L6.15796 4.2998L5.6554 2.04834C5.58398 1.72754 5.29834 1.5 4.96875 1.5L0.703125 1.5C0.314575 1.5 0 1.81299 0 2.2002C0 2.58691 0.314575 2.8999 0.703125 2.8999L4.40442 2.8999L6.9436 14.2749C6.19653 14.5981 5.67188 15.3384 5.67188 16.2002C5.67188 17.3579 6.61816 18.2998 7.78125 18.2998L20.4846 18.2998C20.8733 18.2998 21.1877 17.9868 21.1877 17.6001C21.1877 17.2134 20.8733 16.8999 20.4846 16.8999L7.78125 16.8999C7.39404 16.8999 7.07812 16.5864 7.07812 16.2002C7.07812 15.814 7.39404 15.5 7.78125 15.5Z" fill-rule="nonzero" fill="#FFFFFF"/>
		<path d="M7.07812 20.3999C7.07812 21.5581 8.02441 22.5 9.18774 22.5C10.3508 22.5 11.2971 21.5581 11.2971 20.3999C11.2971 19.2417 10.3508 18.2998 9.18774 18.2998C8.02441 18.2998 7.07812 19.2417 7.07812 20.3999Z" fill-rule="nonzero" fill="#FFFFFF"/>
		<path d="M16.9689 20.3999C16.9689 21.5581 17.9152 22.5 19.0782 22.5C20.2415 22.5 21.1876 21.5581 21.1876 20.3999C21.1876 19.2417 20.2415 18.2998 19.0782 18.2998C17.9152 18.2998 16.9689 19.2417 16.9689 20.3999Z" fill-rule="nonzero" fill="#FFFFFF"/>
	</g>
</svg>
