<svg id="icon-telephone" width="20.000000" height="20.000000" viewBox="0 0 20 20" fill="none" xmlns="http://www.w3.org/2000/svg" xmlns:xlink="http://www.w3.org/1999/xlink">
	<desc>
			Created with Pixso.
	</desc>
	<defs/>
	<path id="Vector" d="M4.05286 13.2944C6.03308 15.6528 8.41663 17.5093 11.1372 18.8232C12.1731 19.312 13.5583 19.8921 15.1017 19.9917C15.1974 19.9961 15.2888 20 15.3845 20C16.4204 20 17.2523 19.6436 17.9304 18.9102C17.9346 18.9058 17.9429 18.8975 17.947 18.8892C18.1884 18.5991 18.4629 18.3384 18.7499 18.0605C18.9454 17.874 19.1451 17.6792 19.3364 17.4805C20.2225 16.5601 20.2225 15.3916 19.3281 14.5005L16.828 12.0098C16.4037 11.5708 15.8962 11.3384 15.3638 11.3384C14.8313 11.3384 14.3196 11.5708 13.8828 12.0059L12.3936 13.4893C12.2563 13.4106 12.1149 13.3403 11.9817 13.2739C11.8153 13.1909 11.6614 13.1123 11.5242 13.0254C10.168 12.1675 8.93665 11.0483 7.7594 9.61035C7.16455 8.86035 6.76514 8.23047 6.48645 7.58789C6.87744 7.23584 7.24353 6.86719 7.59717 6.50635C7.72192 6.37793 7.85095 6.24951 7.97986 6.12109C8.4292 5.67334 8.67041 5.15527 8.67041 4.62891C8.67041 4.10254 8.43335 3.58496 7.97986 3.13721L6.74023 1.90234C6.5946 1.75732 6.4574 1.61621 6.31592 1.47119C6.04138 1.18945 5.75427 0.899414 5.47144 0.638184C5.04297 0.219727 4.53967 0 4.0072 0C3.47888 0 2.97131 0.219727 2.52625 0.642578L0.970459 2.19238C0.404663 2.75586 0.0843506 3.43994 0.0178223 4.23145C-0.0612793 5.22168 0.121826 6.27441 0.596069 7.54639C1.32397 9.51514 2.42224 11.3428 4.05286 13.2944ZM1.03284 4.31836C1.08276 3.76709 1.29492 3.30713 1.69421 2.90918L3.2417 1.36768C3.48303 1.13574 3.74927 1.01514 4.0072 1.01514C4.26086 1.01514 4.5188 1.13574 4.75598 1.37598C5.03467 1.63281 5.29675 1.90234 5.57959 2.18799C5.72107 2.33301 5.8667 2.47803 6.01221 2.62744L7.25195 3.8623C7.50977 4.11914 7.64294 4.38037 7.64294 4.63721C7.64294 4.89453 7.50977 5.15527 7.25195 5.41211C7.12292 5.54102 6.99402 5.67334 6.86499 5.80176C6.47815 6.19141 6.11621 6.56006 5.71692 6.9126C5.70862 6.9209 5.70435 6.9248 5.69604 6.93311C5.35083 7.27734 5.40491 7.60449 5.48804 7.85352C5.49219 7.86572 5.49646 7.87402 5.50061 7.88623C5.82092 8.65332 6.26599 9.38232 6.96069 10.2529C8.20862 11.7861 9.52319 12.9756 10.9708 13.8916C11.1498 14.0073 11.3411 14.0986 11.52 14.1899C11.6864 14.2725 11.8403 14.3516 11.9775 14.4385C11.9943 14.4468 12.0067 14.4551 12.0233 14.4634C12.1606 14.5337 12.2937 14.5669 12.4269 14.5669C12.7596 14.5669 12.976 14.3555 13.0466 14.2852L14.6025 12.7354C14.8438 12.4946 15.1058 12.3662 15.3638 12.3662C15.6799 12.3662 15.9379 12.561 16.1001 12.7354L18.6085 15.23C19.1077 15.7275 19.1035 16.2661 18.5961 16.7925C18.4213 16.979 18.2383 17.1572 18.0427 17.3438C17.7516 17.6255 17.4479 17.9155 17.1733 18.2427C16.6949 18.7568 16.125 18.9971 15.3887 18.9971C15.318 18.9971 15.2432 18.9932 15.1724 18.9888C13.808 18.9019 12.5392 18.3711 11.5865 17.9194C8.99902 16.6724 6.72778 14.9028 4.84326 12.6562C3.29163 10.7959 2.24756 9.06348 1.55701 7.20703C1.12854 6.06689 0.966187 5.15137 1.03284 4.31836Z" fill-rule="nonzero" fill="#FF7010"/>
</svg>
