<svg id="icon-cup" width="18.666687" height="32.000000" viewBox="0 0 18.6667 32" fill="none" xmlns="http://www.w3.org/2000/svg" xmlns:xlink="http://www.w3.org/1999/xlink">
	<desc>
			Created with Pixso.
	</desc>
	<defs/>
	<path id="Vector" d="M10.4386 6.51318L10.4386 3.68164L16.4321 2.25684C16.9824 2.12598 17.3147 1.56543 17.1653 1.02002L17.1402 0.928223C16.9982 0.409668 16.472 0.0966797 15.9487 0.218262L9.0011 1.8374C8.5484 1.94287 8.22809 2.34668 8.22809 2.81152L8.22809 6.51318L1 6.51318C0.447693 6.51318 0 6.96094 0 7.51318L0 11.1152L18.6667 11.1152L18.6667 7.51318C18.6667 6.96094 18.2189 6.51318 17.6667 6.51318L10.4386 6.51318Z" fill-rule="nonzero" fill="#FF7010"/>
	<path id="Vector" d="M0.0859375 12.8848L2.62805 30.1592C2.77539 31.2212 3.73328 32 4.80176 32L13.7543 32C14.8596 32 15.7807 31.2212 15.928 30.1592L18.4702 12.8848L0.0859375 12.8848Z" fill-rule="nonzero" fill="#FF7010"/>
</svg>
