<svg width="40.000000" height="35.000000" viewBox="0 0 40 35" fill="none" xmlns="http://www.w3.org/2000/svg" xmlns:xlink="http://www.w3.org/1999/xlink">
	<desc>
			Created with Pixso.
	</desc>
	<defs/>
	<path id="Vector" d="M17.1953 24.7793C15.2178 24.7793 13.6094 26.2227 13.6094 27.9966C13.6094 29.771 15.2178 31.2144 17.1953 31.2144C19.1719 31.2144 20.7803 29.771 20.7803 27.9966C20.7803 26.2227 19.1719 24.7793 17.1953 24.7793ZM17.1953 29.8123C16.0791 29.8123 15.1719 28.9978 15.1719 27.9966C15.1719 26.9958 16.0791 26.1814 17.1953 26.1814C18.3105 26.1814 19.2178 26.9958 19.2178 27.9966C19.2178 28.9978 18.3105 29.8123 17.1953 29.8123Z" fill-rule="nonzero" fill="#FF7010"/>
	<path id="Vector" d="M31.3408 22.3481C29.8379 22.3481 28.6143 23.4456 28.6143 24.7944C28.6143 26.1433 29.8379 27.2407 31.3408 27.2407C32.8438 27.2407 34.0664 26.1433 34.0664 24.7944C34.0664 23.4456 32.8438 22.3481 31.3408 22.3481ZM31.3408 25.8389C30.6992 25.8389 30.1768 25.3704 30.1768 24.7944C30.1768 24.2185 30.6992 23.7502 31.3408 23.7502C31.9824 23.7502 32.5039 24.2188 32.5039 24.7944C32.5039 25.3704 31.9824 25.8389 31.3408 25.8389Z" fill-rule="nonzero" fill="#FF7010"/>
	<path id="Vector" d="M8.55469 18.7119C7.14355 18.7119 5.99609 19.7422 5.99609 21.0083C5.99609 22.2744 7.14355 23.3044 8.55469 23.3044C9.96582 23.3044 11.1143 22.2744 11.1143 21.0083C11.1143 19.7422 9.96582 18.7119 8.55469 18.7119ZM8.55469 21.9026C8.00586 21.9026 7.55859 21.5012 7.55859 21.0083C7.55859 20.5154 8.00586 20.1143 8.55469 20.1143C9.10449 20.1143 9.55176 20.5154 9.55176 21.0083C9.55176 21.5012 9.10449 21.9026 8.55469 21.9026Z" fill-rule="nonzero" fill="#FF7010"/>
	<path id="Vector" d="M29.96 8.78125C31.3896 8.78125 32.5518 7.73828 32.5518 6.45605C32.5518 5.17383 31.3896 4.13086 29.96 4.13086C28.5312 4.13086 27.3691 5.17383 27.3691 6.45605C27.3691 7.73828 28.5312 8.78125 29.96 8.78125ZM29.96 5.53296C30.5273 5.53296 30.9893 5.94702 30.9893 6.45605C30.9893 6.96509 30.5273 7.37915 29.96 7.37915C29.3926 7.37915 28.9316 6.96509 28.9316 6.45605C28.9316 5.94702 29.3926 5.53296 29.96 5.53296Z" fill-rule="nonzero" fill="#FF7010"/>
	<path id="Vector" d="M39.9561 14.8994L39.874 14.3772C39.1221 9.58643 36.8691 5.12183 33.3584 1.46484C31.8857 -0.0693359 29.4014 -0.447998 27.4521 0.564697L16.8389 6.07837C16.5615 6.2229 16.4102 6.50513 16.458 6.79028C16.5557 7.36841 16.3486 7.93628 15.8896 8.34863C15.1602 9.00293 14.0029 9.06152 13.1992 8.48511C12.9473 8.30493 12.5986 8.28125 12.3203 8.42627L2.26074 13.6519C1.59668 13.9971 1.05273 14.4841 0.664062 15.0557C0.541992 15.1584 0.457031 15.2957 0.428711 15.4502C0.151367 15.9812 0 16.5676 0 17.1707L0 25.4805C0 25.8677 0.349609 26.1814 0.78125 26.1814C1.89648 26.1814 2.80469 26.9958 2.80469 27.9968C2.80469 28.9978 1.89648 29.8123 0.78125 29.8123C0.349609 29.8123 0 30.1262 0 30.5134L0 30.9341C0 33.176 2.0332 35 4.53125 35L27.1562 35C27.5879 35 27.9375 34.6863 27.9375 34.2991C27.9375 33.2979 28.8457 32.4834 29.9609 32.4834C31.0762 32.4834 31.9844 33.2979 31.9844 34.2991C31.9844 34.6863 32.334 35 32.7656 35L35.4688 35C37.9668 35 40 33.176 40 30.9341L40 15.4666C40 15.2773 39.9854 15.0867 39.9561 14.8994ZM35.4688 33.5979L33.4609 33.5979C33.1035 32.1597 31.6699 31.0813 29.9609 31.0813C28.252 31.0813 26.8184 32.1597 26.4609 33.5979L4.53125 33.5979C2.96973 33.5979 1.68652 32.5107 1.57129 31.1355C3.16895 30.8118 4.36719 29.5276 4.36719 27.9968C4.36719 26.4634 3.16504 25.177 1.5625 24.8562L1.5625 17.1707C1.5625 16.8584 1.625 16.5537 1.74023 16.2678L7.05762 16.2678C7.48828 16.2678 7.83887 15.9539 7.83887 15.5667C7.83887 15.1794 7.48828 14.8657 7.05762 14.8657L3.04297 14.8657C3.04297 14.8655 3.04395 14.8655 3.04395 14.8655L12.6797 9.85913C14.0625 10.5713 15.834 10.3811 16.9941 9.34009C17.666 8.7373 18.0391 7.91602 18.0439 7.073L28.2354 1.77808C29.5342 1.10303 31.1914 1.3562 32.1748 2.38013C35.4893 5.83276 37.6162 10.0488 38.3262 14.5723L38.3721 14.8657L21.124 14.8657C21.4463 14.0496 22.3145 13.4636 23.333 13.4636C23.7646 13.4636 24.1143 13.1497 24.1143 12.7625C24.1143 12.3752 23.7646 12.0615 23.333 12.0615C21.4473 12.0615 19.8691 13.2676 19.5059 14.8657L13.8281 14.8657C13.3965 14.8657 13.0469 15.1794 13.0469 15.5667C13.0469 15.9539 13.3965 16.2678 13.8281 16.2678L19.5059 16.2678C19.8691 17.8657 21.4473 19.0718 23.333 19.0718C25.2197 19.0718 26.7979 17.8657 27.1611 16.2678L38.4375 16.2678L38.4375 30.9341C38.4375 32.4028 37.1055 33.5979 35.4688 33.5979ZM25.543 16.2678C25.2197 17.0837 24.3516 17.6699 23.333 17.6699C22.3145 17.6699 21.4463 17.0837 21.124 16.2678L25.543 16.2678Z" fill-rule="nonzero" fill="#FF7010"/>
	<path id="Vector" d="M10.5469 14.8657C10.3418 14.8657 10.1396 14.9407 9.99414 15.071C9.84961 15.2014 9.76562 15.3826 9.76562 15.5667C9.76562 15.751 9.84961 15.9321 9.99414 16.0625C10.1396 16.1929 10.3418 16.2678 10.5469 16.2678C10.752 16.2678 10.9541 16.1929 11.0996 16.0625C11.2441 15.9321 11.3281 15.751 11.3281 15.5667C11.3281 15.3826 11.2441 15.2014 11.0996 15.071C10.9541 14.9407 10.752 14.8657 10.5469 14.8657Z" fill-rule="nonzero" fill="#FF7010"/>
</svg>
