<svg width="26.666382" height="32.000000" viewBox="0 0 26.6664 32" fill="none" xmlns="http://www.w3.org/2000/svg" xmlns:xlink="http://www.w3.org/1999/xlink">
	<desc>
			Created with Pixso.
	</desc>
	<defs/>
	<path id="path4528" d="M6.39832 0C6.10278 0 5.88232 0.238281 5.86499 0.533203L5.86499 8.62793C6.40112 8.82178 6.81702 9.29443 6.91077 9.87939C6.91455 9.89941 7.12732 11.0933 7.99829 12.3501L7.99829 0.533203C7.99829 0.237793 7.76038 0 7.46497 0L6.39832 0ZM19.1982 0C18.9028 0 18.6823 0.238281 18.6649 0.533203L18.6649 12.3447C19.5413 11.0781 19.7556 9.86865 19.7556 9.86865C19.8525 9.28906 20.2659 8.8208 20.7982 8.62793L20.7982 0.533203C20.7982 0.237793 20.5604 0 20.2649 0L19.1982 0ZM9.59827 2.1333C9.30286 2.1333 9.06494 2.37109 9.06494 2.6665L9.06494 13.5513C9.61108 14.0254 10.2917 14.4282 11.1982 14.6729L11.1982 2.6665C11.1982 2.37109 10.9604 2.1333 10.6649 2.1333L9.59827 2.1333ZM15.9983 2.1333C15.7028 2.1333 15.465 2.37109 15.465 2.6665L15.465 14.6729C16.3717 14.4277 17.0524 14.0239 17.5983 13.5488L17.5983 2.6665C17.5983 2.37109 17.3604 2.1333 17.0649 2.1333L15.9983 2.1333ZM3.19824 4.2666C2.90283 4.2666 2.66492 4.50439 2.66492 4.7998L2.66492 8.53223L4.79822 8.53223L4.79822 4.7998C4.79822 4.50439 4.56042 4.2666 4.26489 4.2666L3.19824 4.2666ZM12.7982 4.2666C12.5028 4.2666 12.2649 4.50439 12.2649 4.7998L12.2649 14.875C12.5958 14.9126 12.9502 14.9331 13.3306 14.9331C13.7122 14.9331 14.0665 14.9126 14.3983 14.875L14.3983 4.7998C14.3983 4.50439 14.1604 4.2666 13.865 4.2666L12.7982 4.2666ZM22.3983 4.2666C22.1028 4.2666 21.865 4.50439 21.865 4.7998L21.865 8.53223L23.9983 8.53223L23.9983 4.7998C23.9983 4.50439 23.7604 4.2666 23.465 4.2666L22.3983 4.2666ZM0.531616 9.59912C0.210449 9.6001 -0.0368652 9.88281 0.0045166 10.2012L2.67017 30.4644C2.76453 31.2583 3.38428 32 4.26392 32L22.3983 32C23.2758 32 23.895 31.2603 23.9921 30.4688L26.6619 10.2012C26.7034 9.88086 26.4534 9.59766 26.1306 9.59912L21.3317 9.59912C21.0707 9.6001 20.849 9.79004 20.8076 10.0479C20.8076 10.0479 20.5554 11.5288 19.4962 13.0239C18.437 14.519 16.6342 16 13.3317 16C10.0291 16 8.22522 14.519 7.16602 13.0239C6.10681 11.5288 5.85864 10.0479 5.85864 10.0479C5.81714 9.78906 5.59375 9.59863 5.33167 9.59912L0.531616 9.59912ZM13.3317 19.7344C15.6818 19.7344 17.5983 21.6479 17.5983 23.998C17.5983 26.3481 15.6818 28.2656 13.3317 28.2656C10.9814 28.2656 9.06287 26.3481 9.06287 23.998C9.06287 21.6479 10.9814 19.7344 13.3317 19.7344Z" fill-rule="nonzero" fill="#FF7010"/>
</svg>
