<svg width="25.333374" height="32.000000" viewBox="0 0 25.3334 32" fill="none" xmlns="http://www.w3.org/2000/svg" xmlns:xlink="http://www.w3.org/1999/xlink">
	<desc>
			Created with Pixso.
	</desc>
	<defs/>
	<path id="Vector" d="M14.3357 15.792C13.8901 15.3462 13.2905 15.0962 12.666 15.0962C12.0415 15.0962 11.4419 15.3462 10.9963 15.792C10.9963 15.792 9.68555 17.1279 9.31201 17.4287L10.459 32L14.8829 32L16.0299 17.439C15.8136 17.3184 14.3357 15.792 14.3357 15.792Z" fill-rule="nonzero" fill="#FF7010"/>
	<path id="Vector" d="M6.04163 15.6421C5.61682 15.2183 5.05212 14.9712 4.45813 14.9497C3.86401 14.9282 3.28357 15.1333 2.8302 15.5249L0.536255 17.4888L2.745 29.9497C2.84644 30.5225 3.14233 31.0405 3.58081 31.4136C4.01929 31.7866 4.57251 31.9907 5.14368 31.9902L9.14819 31.9902L8.00781 17.5122C7.7489 17.4121 6.04163 15.6421 6.04163 15.6421Z" fill-rule="nonzero" fill="#FF7010"/>
	<path id="Vector" d="M12.1368 2.68018C12.306 2.74854 12.4857 2.78564 12.6677 2.79053C12.8955 2.7959 13.1207 2.74121 13.3213 2.63086C13.5219 2.521 13.6908 2.35938 13.8114 2.1626C13.9613 1.93555 14.0411 1.66797 14.0408 1.39453C14.04 1.18164 13.9917 0.972168 13.8995 0.78125C13.8074 0.590332 13.6738 0.42334 13.5088 0.293457C13.3439 0.163086 13.152 0.0727539 12.9478 0.0292969C12.7435 -0.0141602 12.5322 -0.00927734 12.33 0.0429688C12.1277 0.0952148 11.9398 0.193848 11.7805 0.331543C11.6213 0.46875 11.4949 0.641113 11.4109 0.835938C11.3269 1.03076 11.2875 1.24219 11.2958 1.45459C11.304 1.66699 11.3596 1.875 11.4585 2.0625C11.6122 2.33838 11.8505 2.55566 12.1368 2.68018Z" fill-rule="nonzero" fill="#FF7010"/>
	<path id="Vector" d="M20.5752 8.51172L20.2015 8.42139L20.1097 8.04053C19.5232 5.70264 17.4358 3.80225 14.7323 3.15479C14.4872 3.47119 14.1721 3.72412 13.8127 3.89307C13.4534 4.06201 13.0599 4.14209 12.6644 4.12646C11.5667 4.12646 10.6589 3.20801 10.6066 3.14453C7.90625 3.79248 5.81885 5.67285 5.23547 8.02393L5.14709 8.42139L4.77014 8.52148C3.19214 8.94092 1.83154 9.96045 0.968018 11.3701C0.10437 12.7803 -0.196655 14.4736 0.126709 16.103L1.98474 14.5098C2.68677 13.9043 3.58533 13.5869 4.50452 13.6201C5.42383 13.6538 6.29785 14.0352 6.95593 14.6899L8.59448 16.3066L10.0953 14.8271C10.4318 14.4834 10.8326 14.2124 11.274 14.0303C11.7153 13.8477 12.1882 13.7573 12.6644 13.7651C13.6318 13.7715 14.559 14.1606 15.25 14.8506L16.7181 16.3135L18.3927 14.6733C19.0515 14.0249 19.9231 13.6489 20.8385 13.6177C21.754 13.5869 22.6481 13.9038 23.3475 14.5063L25.2023 16.103C25.5315 14.4741 25.2351 12.7793 24.3741 11.3667C23.5133 9.9541 22.1536 8.93213 20.5752 8.51172Z" fill-rule="nonzero" fill="#FF7010"/>
	<path id="Vector" d="M19.3004 15.6216C19.3004 15.6216 17.5374 17.4048 17.3342 17.4854L16.1906 31.9897L20.2015 31.9897C20.7728 31.9902 21.326 31.7866 21.7645 31.4136C22.203 31.0405 22.4989 30.522 22.6003 29.9492L23.6981 23.7573L24.7894 17.4883L22.4955 15.5146C22.0441 15.127 21.4678 14.9233 20.8778 14.9434C20.2878 14.9629 19.726 15.2046 19.3004 15.6216Z" fill-rule="nonzero" fill="#FF7010"/>
</svg>
