<svg width="20.000000" height="20.000000" viewBox="0 0 20 20" fill="none" xmlns="http://www.w3.org/2000/svg" xmlns:xlink="http://www.w3.org/1999/xlink">
	<desc>
			Created with Pixso.
	</desc>
	<defs/>
	<path id="Vector" d="M10.0042 0.0078125C7.28638 0.0078125 6.94458 0.0205078 5.87744 0.0664062C4.81445 0.116211 4.08508 0.287109 3.45142 0.532715C2.78394 0.78418 2.17932 1.17822 1.67981 1.68701C1.17065 2.18652 0.776611 2.79053 0.525269 3.45801C0.275146 4.09131 0.108398 4.82031 0.0583496 5.88281C0.0124512 6.94971 0 7.2915 0 10.0083C0 12.7163 0.0124512 13.0625 0.0583496 14.125C0.108398 15.1914 0.279297 15.9165 0.525269 16.5542C0.776611 17.2212 1.17065 17.8257 1.67981 18.3252C2.17932 18.834 2.78394 19.228 3.45142 19.479C4.08508 19.7251 4.81445 19.896 5.87744 19.9419C6.94458 19.9917 7.28638 20 10.0042 20C12.7136 20 13.0596 19.9917 14.1226 19.9419C15.1897 19.8916 15.9149 19.7251 16.5527 19.479C17.2202 19.228 17.8248 18.834 18.3243 18.3252C18.8335 17.8257 19.2275 17.2212 19.479 16.5542C19.7249 15.9165 19.8958 15.1914 19.9417 14.125C19.9917 13.0625 20 12.7207 20 10.0039C20 7.2915 19.9917 6.94971 19.9417 5.88281C19.8916 4.82031 19.7249 4.09131 19.479 3.45801C19.2275 2.79053 18.8335 2.18652 18.3243 1.68701C17.8248 1.17822 17.2202 0.78418 16.5527 0.532715C15.9149 0.282715 15.1897 0.116211 14.1226 0.0664062C12.7506 0.00683594 11.3772 -0.0126953 10.0042 0.0078125ZM10.0042 1.80811C12.672 1.80811 12.9888 1.82031 14.0433 1.86621C15.0188 1.91211 15.5439 2.07471 15.8983 2.21191C16.3651 2.39111 16.6986 2.60791 17.0488 2.96191C17.3813 3.2832 17.6377 3.6748 17.7991 4.10791C17.9325 4.46191 18.0992 4.99121 18.1409 5.96631C18.1909 7.02051 18.1992 7.3374 18.1992 10.0083C18.1992 12.6748 18.1909 12.9917 18.1409 14.0459C18.0992 15.0205 17.9325 15.5459 17.7991 15.8999C17.6382 16.3345 17.3818 16.7275 17.0488 17.0498C16.7263 17.3828 16.3331 17.6392 15.8983 17.7998C15.5481 17.9331 15.0188 18.1001 14.0433 18.1416C12.9888 18.1914 12.6677 18.2002 10 18.2002C7.33228 18.2002 7.01538 18.1914 5.95667 18.1416C4.98535 18.1001 4.45605 17.9331 4.10168 17.7998C3.66687 17.6392 3.27368 17.3828 2.95117 17.0498C2.61816 16.7275 2.36182 16.3345 2.20093 15.8999C2.0675 15.5498 1.90491 15.0205 1.85913 14.0459C1.80042 12.6992 1.78088 11.3516 1.80078 10.0039C1.80078 7.3374 1.81323 7.02051 1.85913 5.96191C1.90491 4.99121 2.0675 4.46191 2.20508 4.10791C2.36597 3.67334 2.62231 3.28027 2.95544 2.95801C3.27673 2.62549 3.66833 2.36914 4.10168 2.20801C4.45605 2.07471 4.98535 1.91211 5.96082 1.86621C7.01538 1.82031 7.33228 1.80811 10.0042 1.80811ZM10.0042 4.87061C8.64221 4.87061 7.33594 5.41113 6.3728 6.37402C5.40979 7.33691 4.86865 8.64258 4.86865 10.0039C4.86865 11.3652 5.40979 12.6709 6.3728 13.6338C7.33594 14.5967 8.64221 15.1372 10.0042 15.1372C11.3662 15.1372 12.6724 14.5967 13.6355 13.6338C14.5986 12.6709 15.1396 11.3652 15.1396 10.0039C15.1396 8.64258 14.5986 7.33691 13.6355 6.37402C12.6724 5.41113 11.3662 4.87061 10.0042 4.87061ZM10.0042 13.3413C9.11975 13.3413 8.27148 12.9902 7.64612 12.3652C7.02075 11.7402 6.66943 10.8921 6.66943 10.0083C6.66943 9.12402 7.02075 8.27637 7.64612 7.65088C8.27148 7.02588 9.11975 6.6748 10.0042 6.6748C10.8885 6.6748 11.7368 7.02588 12.3622 7.65088C12.9875 8.27637 13.3389 9.12402 13.3389 10.0083C13.3389 10.8921 12.9875 11.7402 12.3622 12.3652C11.7368 12.9902 10.8885 13.3413 10.0042 13.3413ZM16.5403 4.6748C16.5403 4.35645 16.4137 4.05127 16.1886 3.82617C15.9635 3.60107 15.6581 3.47461 15.3397 3.47461C15.0214 3.47461 14.7159 3.60107 14.4908 3.82617C14.2657 4.05127 14.1393 4.35645 14.1393 4.6748C14.1393 4.99268 14.2657 5.29834 14.4908 5.52295C14.7159 5.74805 15.0214 5.87451 15.3397 5.87451C15.6581 5.87451 15.9635 5.74805 16.1886 5.52295C16.4137 5.29834 16.5403 4.99268 16.5403 4.6748Z" fill-rule="nonzero" fill="#FF7010"/>
</svg>
