<svg id="icon-cross" width="24.000000" height="24.000000" viewBox="0 0 24 24" fill="none" xmlns="http://www.w3.org/2000/svg" xmlns:xlink="http://www.w3.org/1999/xlink">
	<desc>
			Created with Pixso.
	</desc>
	<defs/>
	<path id="Union" d="M1.33203 0.228516C1.02734 -0.0761719 0.533203 -0.0761719 0.228516 0.228516C-0.0761719 0.533203 -0.0761719 1.02734 0.228516 1.33203L10.8965 12L0.228516 22.668C-0.0761719 22.9727 -0.0761719 23.4668 0.228516 23.7715C0.533203 24.0762 1.02734 24.0762 1.33203 23.7715L12 13.1035L22.668 23.7715C22.9727 24.0762 23.4668 24.0762 23.7715 23.7715C24.0762 23.4668 24.0762 22.9727 23.7715 22.668L13.1035 12L23.7715 1.33203C24.0762 1.02734 24.0762 0.533203 23.7715 0.228516C23.4668 -0.0761719 22.9727 -0.0761719 22.668 0.228516L12 10.8965L1.33203 0.228516Z" fill-rule="evenodd" fill="#A5A5A5"/>
</svg>
