<svg id="icon-map-point" width="13.000000" height="20.000000" viewBox="0 0 13 20" fill="none" xmlns="http://www.w3.org/2000/svg" xmlns:xlink="http://www.w3.org/1999/xlink">
	<desc>
			Created with Pixso.
	</desc>
	<defs/>
	<path id="Vector" d="M6.52008 3.90625C5.04379 3.89551 3.83478 5.1123 3.82364 6.62012C3.8125 8.12793 5.00412 9.36377 6.47992 9.375C6.48679 9.375 6.49359 9.375 6.50043 9.375C7.96683 9.375 9.16528 8.16211 9.17639 6.66113C9.1875 5.15332 7.99594 3.91748 6.52008 3.90625ZM6.50034 8.59375C6.49554 8.59375 6.49048 8.59375 6.48566 8.59375C5.43149 8.58545 4.58032 7.70312 4.58829 6.62598C4.59619 5.55371 5.45218 4.6875 6.49966 4.6875C6.50449 4.6875 6.50952 4.6875 6.51434 4.6875C7.56851 4.6958 8.41968 5.57861 8.41174 6.65527C8.40378 7.72754 7.54782 8.59375 6.50034 8.59375Z" fill-rule="nonzero" fill="#FF7010"/>
	<path id="Vector" d="M8.84598 14.7046C11.3891 11.3604 12.9784 9.6167 12.9998 6.69043C13.0267 3.00928 10.1025 0 6.49942 0C2.93839 0 0.0272827 2.94629 0.000213623 6.59082C-0.021637 9.59619 1.59717 11.3379 4.15781 14.7041C1.61044 15.0933 0.000213623 16.0703 0.000213623 17.2656C0.000213623 18.0664 0.724609 18.7847 2.04001 19.2886C3.23724 19.7476 4.82117 20 6.50003 20C8.17886 20 9.76279 19.7476 10.9601 19.2886C12.2754 18.7847 12.9998 18.0664 12.9998 17.2656C12.9998 16.0708 11.3911 15.0942 8.84598 14.7046ZM0.764862 6.59668C0.788727 3.38086 3.35715 0.78125 6.49948 0.78125C9.67902 0.78125 12.2589 3.43701 12.2352 6.68457C12.2148 9.46338 10.5294 11.1758 7.83853 14.7593C7.35858 15.3984 6.91782 16.0024 6.50058 16.5933C6.08459 16.002 5.65262 15.4087 5.16547 14.7593C2.36343 11.0254 0.744141 9.44238 0.764862 6.59668ZM6.50003 19.2188C3.21753 19.2188 0.764862 18.1875 0.764862 17.2656C0.764862 16.582 2.23108 15.7183 4.69638 15.4189C5.24133 16.1494 5.71912 16.8135 6.18771 17.4912C6.25928 17.5947 6.37561 17.6562 6.49966 17.6562C6.49979 17.6562 6.49991 17.6562 6.50003 17.6562C6.62396 17.6562 6.74023 17.5947 6.81192 17.4917C7.27609 16.8228 7.76697 16.1426 8.30725 15.4194C10.7702 15.7188 12.2352 16.5825 12.2352 17.2656C12.2351 18.1875 9.7825 19.2188 6.50003 19.2188Z" fill-rule="nonzero" fill="#FF7010"/>
</svg>
