<svg width="24.000000" height="32.000000" viewBox="0 0 24 32" fill="none" xmlns="http://www.w3.org/2000/svg" xmlns:xlink="http://www.w3.org/1999/xlink">
	<desc>
			Created with Pixso.
	</desc>
	<defs/>
	<path id="Vector" d="M23.9316 18.7354C23.5651 13.9629 21.3431 10.9727 19.3828 8.3335C17.5677 5.89014 16 3.78027 16 0.667969C16 0.417969 15.86 0.189453 15.638 0.074707C15.4153 -0.0405273 15.1477 -0.0214844 14.9453 0.125488C12.0013 2.23193 9.54492 5.78271 8.68686 9.17041C8.09119 11.5288 8.01236 14.1807 8.00131 15.9316C5.28256 15.3511 4.66669 11.2842 4.66019 11.2397C4.62955 11.0288 4.50067 10.8452 4.31317 10.7451C4.12375 10.6465 3.90106 10.6392 3.70898 10.7339C3.56644 10.8032 0.209625 12.5088 0.0143127 19.3188C0.000610352 19.5454 0 19.7725 0 20C0 26.6157 5.38342 31.999 12 31.999C12.0091 31.9995 12.0189 32.001 12.0267 31.999C12.0293 31.999 12.0319 31.999 12.0351 31.999C18.6354 31.98 24 26.604 24 20C24 19.667 23.9316 18.7354 23.9316 18.7354ZM12 30.6655C9.79425 30.6655 8 28.7544 8 26.4048C8 26.3247 7.99936 26.2441 8.00519 26.145C8.03186 25.1543 8.22006 24.478 8.42642 24.0283C8.81317 24.8589 9.50455 25.6226 10.6276 25.6226C10.9961 25.6226 11.2943 25.3242 11.2943 24.9561C11.2943 24.0068 11.3139 22.9116 11.5502 21.9233C11.7605 21.0474 12.2631 20.1147 12.8998 19.3677C13.183 20.3379 13.7351 21.1226 14.2742 21.8892C15.0457 22.9854 15.8432 24.1187 15.9832 26.0513C15.9916 26.166 16.0001 26.2812 16.0001 26.4048C16 28.7544 14.2057 30.6655 12 30.6655Z" fill-rule="nonzero" fill="#E23535"/>
</svg>
