<svg width="32.000000" height="20.000000" viewBox="0 0 32 20" fill="none" xmlns="http://www.w3.org/2000/svg" xmlns:xlink="http://www.w3.org/1999/xlink">
	<desc>
			Created with Pixso.
	</desc>
	<defs/>
	<path id="Vector" d="M31.9807 4.42139C31.9487 1.97803 29.9575 0 27.5144 0C25.3318 0 23.511 1.5791 23.1245 3.6582C22.3572 3.99902 21.0244 4.54346 20.2302 4.67627C19.2727 4.83594 18.1155 4.88428 16.7908 4.81885C14.2605 4.69385 11.7344 3.86719 9.48535 2.42725C6.65527 0.615723 4.24487 0.191895 1.66968 1.05273C0.670898 1.38672 0 2.32959 0 3.39941C0 3.74561 0.187744 4.06494 0.489502 4.23047C0.834473 4.41992 1.15698 4.5835 1.46899 4.7417C3.15918 5.59814 4.09033 6.06982 4.70728 8.66943C5.16821 10.6108 5.97461 12.2378 7.10449 13.5054C7.58398 14.0435 8.12305 14.5181 8.71655 14.9268L21.5471 14.9268C23.4854 13.4668 24.6719 11.2515 24.998 8.4585C25.1938 6.78174 25.0293 5.31982 24.9146 4.59912C24.9194 4.56055 24.9226 4.52148 24.9226 4.48145C24.9226 3.0542 26.0852 1.89307 27.5144 1.89307C28.9434 1.89307 30.1062 3.0542 30.1062 4.48145C30.1062 4.52637 30.1094 4.57129 30.1157 4.61621C30.1169 4.62549 30.2205 5.56396 29.6423 6.23779C29.1685 6.78955 28.3313 7.06982 27.1543 7.06982C26.6365 7.06982 26.2168 7.49316 26.2168 8.01611C26.2168 8.53857 26.6365 8.9624 27.1543 8.9624C28.8997 8.9624 30.2136 8.46289 31.0593 7.47705C32.0967 6.26807 32.0205 4.79883 31.9807 4.42139Z" fill-rule="nonzero" fill="#FF7010"/>
	<path id="Vector" d="M8.72168 16.8193C8.66943 17.0229 8.64185 17.2368 8.64185 17.4565L8.64185 19.0532C8.64185 19.5757 9.06152 20 9.5791 20L20.7441 20C21.2617 20 21.6816 19.5757 21.6816 19.0532L21.6816 17.4565C21.6816 17.2368 21.6538 17.0229 21.6016 16.8193L8.72168 16.8193Z" fill-rule="nonzero" fill="#FF7010"/>
</svg>
