<svg width="30.666626" height="32.000000" viewBox="0 0 30.6666 32" fill="none" xmlns="http://www.w3.org/2000/svg" xmlns:xlink="http://www.w3.org/1999/xlink">
	<desc>
			Created with Pixso.
	</desc>
	<defs/>
	<mask id="mask4_3593" mask-type="alpha" maskUnits="userSpaceOnUse" x="0.000000" y="0.000000" width="16.400024" height="32.000000">
		<rect id="Rectangle 1" width="16.400002" height="32.000000" fill="#C4C4C4"/>
	</mask>
	<g mask="url(#mask4_3593)">
		<path id="Vector" d="M26.155 23.0049C26.2383 23.8687 25.9347 24.7163 25.3214 25.3301C24.7081 25.9438 23.8629 26.2476 22.998 26.165C22.2804 26.0957 21.5948 26.4907 21.2957 27.1489C20.9359 27.939 20.2491 28.5205 19.4117 28.7451C18.5734 28.9697 17.6886 28.8101 16.9832 28.3057C16.8632 28.2202 16.7334 28.1562 16.6 28.1055L16.6 32C22.0466 31.7979 26.804 28.8584 29.5394 24.5181L26.1736 22.5728C26.1508 22.7139 26.141 22.8584 26.155 23.0049Z" fill-rule="nonzero" fill="#FF7010"/>
		<path id="Vector" d="M13.3398 28.8447C13.0891 28.8447 12.8368 28.812 12.5883 28.7456C11.7509 28.521 11.0641 27.939 10.7043 27.1489C10.4047 26.4907 9.71838 26.0962 9.00159 26.165C8.13599 26.2466 7.29138 25.9438 6.67859 25.3301C6.06531 24.7163 5.76172 23.8687 5.84497 23.0049C5.85901 22.8579 5.84924 22.7139 5.82642 22.5728L2.46057 24.5181C5.19604 28.8589 9.95337 31.7979 15.4 32L15.4 28.1055C15.2666 28.1562 15.1368 28.2202 15.0168 28.3057C14.5204 28.6602 13.9348 28.8447 13.3398 28.8447Z" fill-rule="nonzero" fill="#FF7010"/>
		<path id="Vector" d="M12.8988 4.41504C12.4086 4.54639 12.007 4.88672 11.7964 5.34912C11.2847 6.47363 10.1085 7.15039 8.88672 7.03076C8.38086 6.98193 7.88586 7.15967 7.52734 7.51904C7.16833 7.87842 6.9906 8.37451 7.03943 8.87988C7.07837 9.28418 7.02393 9.67969 6.90356 10.0498L15.3999 14.96L15.3999 5.13965C15.0194 5.05859 14.6503 4.9082 14.3198 4.67236C13.907 4.37695 13.3887 4.28369 12.8988 4.41504ZM13.0669 10.915C12.1613 11.4385 11.0032 11.1279 10.4803 10.2212C9.95752 9.31494 10.2677 8.15576 11.1733 7.63232C12.0791 7.10889 13.2371 7.41943 13.76 8.32617C14.2828 9.23242 13.9725 10.3916 13.0669 10.915Z" fill-rule="nonzero" fill="#FF7010"/>
		<path id="Vector" d="M4.86169 21.3008C4.07263 20.9409 3.49146 20.2539 3.26685 19.4155C3.04224 18.5771 3.20239 17.6909 3.7063 16.9844C4.12573 16.3955 4.12573 15.6045 3.7063 15.0161C3.20239 14.3096 3.04224 13.4233 3.26685 12.585C3.49146 11.7466 4.07263 11.0596 4.86169 10.6997C4.99585 10.6387 5.11584 10.5576 5.22632 10.4678L1.85803 8.521C0.673828 10.7549 0 13.2998 0 16C0 18.7007 0.673828 21.2451 1.85803 23.4795L5.22644 21.5327C5.11584 21.4424 4.99585 21.3618 4.86169 21.3008Z" fill-rule="nonzero" fill="#FF7010"/>
		<path id="Vector" d="M19.4117 3.25488C20.2491 3.479 20.9359 4.06104 21.2957 4.85107C21.5948 5.50928 22.2804 5.90479 22.9984 5.83496C23.8613 5.75195 24.7086 6.05615 25.3214 6.66992C25.9347 7.28369 26.2383 8.13135 26.155 8.99512C26.141 9.14209 26.1508 9.28613 26.1736 9.42725L29.5394 7.48242C26.804 3.1416 22.0466 0.202148 16.6 0L16.6 3.89453C16.7334 3.84375 16.8632 3.78027 16.9832 3.69434C17.6886 3.18994 18.5734 3.02979 19.4117 3.25488Z" fill-rule="nonzero" fill="#FF7010"/>
		<path id="Vector" d="M4.42566 19.1045C4.55701 19.5947 4.89722 19.9971 5.35925 20.207C5.72864 20.376 6.04333 20.6206 6.30359 20.9102L14.8 16L6.30359 11.0898C6.04333 11.3794 5.72852 11.624 5.35925 11.7925C4.89722 12.0029 4.55701 12.4053 4.42566 12.8955C4.29443 13.3862 4.38818 13.9048 4.68274 14.3184C5.40027 15.3242 5.40027 16.6758 4.68274 17.6816C4.38818 18.0952 4.29443 18.6138 4.42566 19.1045ZM8.24036 14.1045C9.28613 14.1045 10.1339 14.9531 10.1339 16C10.1339 17.0469 9.28613 17.895 8.24036 17.895C7.19458 17.895 6.3468 17.0469 6.3468 16C6.3468 14.9531 7.19458 14.1045 8.24036 14.1045Z" fill-rule="nonzero" fill="#FF7010"/>
		<path id="Vector" d="M2.46057 7.48242L5.82642 9.42725C5.84924 9.28613 5.85901 9.1416 5.84497 8.99512C5.76172 8.13135 6.06531 7.28369 6.67859 6.66992C7.29187 6.05615 8.13708 5.75244 9.00195 5.83496C9.71716 5.90576 10.4052 5.50879 10.7043 4.85107C11.0641 4.06104 11.7509 3.47949 12.5883 3.25488C13.4261 3.03027 14.3109 3.18994 15.0168 3.69434C15.1368 3.78027 15.2666 3.84375 15.4 3.89453L15.4 0C9.95337 0.202148 5.19604 3.1416 2.46057 7.48242Z" fill-rule="nonzero" fill="#FF7010"/>
		<path id="Vector" d="M30.142 8.521L26.7736 10.4678C26.8842 10.5581 27.0042 10.6387 27.1383 10.6997C27.9274 11.0596 28.5087 11.7466 28.7333 12.585C28.9579 13.4233 28.7977 14.3096 28.2938 15.0161C27.8743 15.6045 27.8743 16.3955 28.2938 16.9844C28.7977 17.6909 28.9579 18.5771 28.7333 19.4155C28.5087 20.2539 27.9274 20.9409 27.1383 21.3008C27.0042 21.3618 26.8842 21.4424 26.7737 21.5327L30.142 23.4795C31.3262 21.2451 32 18.7007 32 16C32 13.2998 31.3262 10.7549 30.142 8.521Z" fill-rule="nonzero" fill="#FF7010"/>
		<path id="Vector" d="M7.03943 23.1201C6.9906 23.6255 7.16833 24.1216 7.52734 24.481C7.88586 24.8398 8.38513 25.0161 8.88623 24.9692C10.1191 24.8496 11.2852 25.5269 11.7964 26.6509C12.007 27.1128 12.4086 27.4536 12.8988 27.585C13.3882 27.7163 13.907 27.623 14.3198 27.3276C14.6501 27.0918 15.0194 26.9414 15.3999 26.8604L15.3999 17.04L6.90356 21.9502C7.02393 22.3203 7.07837 22.7153 7.03943 23.1201ZM10.4803 21.7788C11.0032 20.8721 12.1613 20.5615 13.0669 21.085C13.9725 21.6084 14.2828 22.7676 13.76 23.6738C13.2371 24.5806 12.0791 24.8911 11.1733 24.3677C10.2677 23.8442 9.95752 22.6851 10.4803 21.7788Z" fill-rule="nonzero" fill="#FF7010"/>
		<path id="Vector" d="M19.1012 27.585C19.5914 27.4536 19.9929 27.1133 20.2035 26.6509C20.7152 25.5264 21.8914 24.8516 23.1133 24.9692C23.6176 25.0161 24.114 24.8398 24.4727 24.481C24.8317 24.1216 25.0094 23.6255 24.9606 23.1201C24.9216 22.7158 24.976 22.3203 25.0963 21.9502L16.6 17.04L16.6 26.8604C16.9806 26.9414 17.3497 27.0918 17.6801 27.3276C18.0934 27.623 18.6121 27.7168 19.1012 27.585ZM18.933 21.085C19.8386 20.5615 20.9967 20.8721 21.5197 21.7788C22.0425 22.6851 21.7322 23.8442 20.8265 24.3677C19.9209 24.8911 18.7628 24.5806 18.2399 23.6738C17.717 22.7676 18.0273 21.6084 18.933 21.085Z" fill-rule="nonzero" fill="#FF7010"/>
		<path id="Vector" d="M27.5742 12.8955C27.443 12.4053 27.1027 12.0029 26.6406 11.7925C26.2712 11.624 25.9565 11.3794 25.6963 11.0898L17.1998 16L25.6964 20.9102C25.9565 20.6206 26.2714 20.376 26.6406 20.2075C27.1027 19.9971 27.443 19.5947 27.5742 19.1045C27.7054 18.6138 27.6117 18.0952 27.3171 17.6816C26.5996 16.6758 26.5996 15.3242 27.3171 14.3179C27.6117 13.9048 27.7054 13.3862 27.5742 12.8955ZM23.7595 17.895C22.7137 17.895 21.8661 17.0469 21.8661 16C21.8661 14.9531 22.7137 14.1045 23.7595 14.1045C24.8053 14.1045 25.6531 14.9531 25.6531 16C25.6531 17.0469 24.8053 17.895 23.7595 17.895Z" fill-rule="nonzero" fill="#FF7010"/>
		<path id="Vector" d="M24.9606 8.88037C25.0094 8.37451 24.8317 7.87842 24.4727 7.51953C24.114 7.16016 23.6144 6.98242 23.1136 7.03076C21.8812 7.14941 20.7148 6.47363 20.2035 5.34912C19.9929 4.88721 19.5914 4.54639 19.1012 4.41504C18.6117 4.28369 18.0934 4.37744 17.6801 4.67236C17.3497 4.9082 16.9806 5.05908 16.6 5.13965L16.6 14.96L25.0963 10.0498C24.976 9.67969 24.9216 9.28467 24.9606 8.88037ZM21.5197 10.2217C20.9967 11.1279 19.8386 11.4385 18.933 10.915C18.0273 10.3916 17.717 9.23242 18.2399 8.32617C18.7628 7.41943 19.9209 7.10889 20.8265 7.63232C21.7322 8.15576 22.0425 9.31494 21.5197 10.2217Z" fill-rule="nonzero" fill="#FF7010"/>
	</g>
	<path id="Vector" d="M29.9172 26.2612C29.2073 24.896 29.1299 23.292 29.7073 21.8608C30.3346 20.3027 30.6666 18.5059 30.6666 16.6665C30.6666 13.522 29.7893 11.5913 28.9399 9.72412C28.1805 8.05322 27.4679 6.45654 27.356 3.99512C27.7133 3.98291 27.9999 3.69336 27.9999 3.3335C27.9999 2.96533 27.7019 2.6665 27.3333 2.6665L27.3333 0.666504C27.3333 0.298828 27.0353 0 26.6666 0L21.3333 0C20.9646 0 20.6666 0.298828 20.6666 0.666504L20.6666 2.6665C20.298 2.6665 19.9999 2.96533 19.9999 3.3335C19.9999 3.69336 20.2866 3.98291 20.6439 3.99512C20.5319 6.45654 19.8192 8.0542 19.0599 9.72412C18.2113 11.5913 17.3333 13.522 17.3333 16.6665C17.3333 18.5059 17.6653 20.3027 18.2926 21.8613C18.8693 23.2935 18.7926 24.8975 18.0826 26.2622C17.5925 27.2031 17.3333 28.2651 17.3333 29.3335C17.3333 30.0825 17.4633 30.8301 17.72 31.5552C17.814 31.8218 18.0659 32 18.3479 32L29.6506 32C29.9332 32 30.1846 31.8218 30.2786 31.5562C30.5366 30.8315 30.6666 30.0835 30.6666 29.3335C30.6666 28.2651 30.408 27.2031 29.9172 26.2612ZM26.0139 4C26.0332 4.47461 26.08 4.91113 26.1372 5.3335L21.8633 5.3335C21.9205 4.91113 21.9673 4.47461 21.9866 4L26.0139 4ZM28.4652 12C28.6293 12.4238 28.7772 12.8652 28.9045 13.3335L19.0952 13.3335C19.2225 12.8652 19.3706 12.4238 19.5345 12L28.4652 12ZM28.9072 20C28.7872 20.46 28.6499 20.9087 28.4806 21.3335L19.5199 21.3335C19.3506 20.9087 19.2133 20.46 19.0933 20L28.9072 20Z" fill-rule="nonzero" fill="#FF7010"/>
</svg>
