<svg width="31.999908" height="32.000000" viewBox="0 0 31.9999 32" fill="none" xmlns="http://www.w3.org/2000/svg" xmlns:xlink="http://www.w3.org/1999/xlink">
	<desc>
			Created with Pixso.
	</desc>
	<defs/>
	<path d="M31.814 0.180176C31.6432 0.0117188 31.3908 -0.0444336 31.165 0.0366211L5.20547 9.29248C4.30362 8.74121 3.15967 8.61182 2.1105 9.04639C0.368927 9.76758 -0.461121 11.7715 0.260254 13.5132C1.96143 17.6201 4.4176 21.2959 7.56079 24.439C10.704 27.5825 14.38 30.0386 18.4868 31.7397C18.9133 31.9165 19.3553 32 19.7906 32C21.1328 32 22.409 31.2046 22.9536 29.8896C23.3201 29.0044 23.2855 28.0522 22.9349 27.2344L31.9662 0.827148C32.0439 0.600586 31.9847 0.348633 31.814 0.180176ZM9.13611 9.21826L11.8874 8.2373C12.2104 8.58105 12.3678 9.05518 12.3047 9.53418C12.2491 9.95605 12.0326 10.3311 11.695 10.5903C11.3575 10.8491 10.9395 10.9609 10.5173 10.9058C10.0955 10.8501 9.72049 10.6338 9.46143 10.2959C9.22272 9.98486 9.10916 9.60547 9.13611 9.21826ZM21.7988 29.4111C21.3412 30.5161 20.0698 31.0425 18.9651 30.5845C10.9626 27.27 4.72998 21.0371 1.41519 13.0347C1.19348 12.4995 1.19348 11.9102 1.41519 11.375C1.63687 10.8398 2.05368 10.4229 2.58887 10.2012C3.12405 9.97949 3.71356 9.97949 4.24875 10.2012C4.78394 10.4229 5.20074 10.8398 5.42242 11.375C6.84125 14.8003 8.88998 17.8667 11.5117 20.4883C14.1335 23.1099 17.1996 25.1587 20.625 26.5776C21.7299 27.0352 22.2564 28.3062 21.7988 29.4111ZM27.3514 10.458C27.2949 10.4565 27.2383 10.4536 27.1818 10.4458C26.7599 10.3906 26.3849 10.1738 26.1259 9.83643C25.8669 9.49902 25.7548 9.08057 25.8103 8.65869C25.925 7.78809 26.7266 7.17285 27.5977 7.28711C27.8665 7.32275 28.1188 7.42676 28.334 7.58545L27.3514 10.458ZM28.7495 6.37012C28.4449 6.20459 28.1104 6.09375 27.7609 6.04785C26.2065 5.84277 24.7756 6.94141 24.571 8.49561C24.4719 9.24854 24.6719 9.99512 25.1342 10.5977C25.5795 11.1777 26.217 11.5566 26.9361 11.6724L25.6939 15.3047L24.2653 14.2085C23.9915 13.9985 23.599 14.0503 23.3889 14.3242C23.1788 14.5981 23.2305 14.9902 23.5043 15.2002L25.2671 16.5527L22.0363 26C21.7653 25.7646 21.4532 25.5674 21.1036 25.4224C14.4799 22.6787 9.32117 17.52 6.57761 10.8965C6.48224 10.666 6.36374 10.4521 6.22705 10.2554L7.90073 9.65869C7.95917 10.1626 8.15274 10.6436 8.46979 11.0571C8.93204 11.6597 9.60135 12.0459 10.3542 12.145C10.4803 12.1616 10.6061 12.1699 10.7312 12.1699C11.353 12.1699 11.9545 11.9668 12.456 11.582C13.0586 11.1196 13.4449 10.4502 13.5441 9.69727C13.633 9.02148 13.4753 8.35205 13.1211 7.79736L20.8903 5.02734L21.1847 5.73779C21.2845 5.97852 21.5172 6.12402 21.7624 6.12402C21.8421 6.12402 21.9231 6.1084 22.0013 6.07617C22.3202 5.94434 22.4716 5.57861 22.3396 5.25977L22.0692 4.60693L30.3641 1.64941L28.7495 6.37012Z" fill-rule="nonzero" fill="#FF7010"/>
	<path d="M6.74991 16.7671C6.74805 16.7642 6.74286 16.7563 6.74084 16.7534C6.54947 16.4663 6.16217 16.3892 5.87497 16.5806C5.58829 16.7715 5.51053 17.1587 5.70029 17.4463C5.81998 17.6299 6.02023 17.7305 6.22479 17.7305C6.34055 17.7305 6.45758 17.6982 6.5621 17.6309C6.85248 17.4443 6.93652 17.0576 6.74991 16.7671Z" fill-rule="nonzero" fill="#FF7010"/>
	<path d="M5.79938 15.2144C5.19031 14.1465 4.64279 13.0288 4.17212 11.8926C4.04007 11.5737 3.67426 11.4224 3.35556 11.5547C3.03662 11.6865 2.88525 12.0522 3.01736 12.3711C3.508 13.5557 4.07874 14.7207 4.71362 15.8335C4.82892 16.0356 5.03992 16.1494 5.25705 16.1494C5.36206 16.1494 5.46848 16.1226 5.5661 16.0669C5.86594 15.896 5.97043 15.5142 5.79938 15.2144Z" fill-rule="nonzero" fill="#FF7010"/>
	<path d="M19.5582 7.99902C19.4344 7.98291 19.3085 7.97461 19.1843 7.97461C17.7645 7.97461 16.5538 9.0376 16.3683 10.4468C16.1637 12.001 17.2617 13.4321 18.8159 13.6367C18.9398 13.6528 19.0656 13.6611 19.1898 13.6611C20.6096 13.6611 21.8202 12.5986 22.0058 11.189C22.2103 9.63477 21.1124 8.2041 19.5582 7.99902ZM20.7665 11.0259C20.6625 11.8154 19.9847 12.4111 19.1898 12.4111C19.12 12.4111 19.049 12.4067 18.9791 12.3975C18.1082 12.2827 17.493 11.481 17.6077 10.6099C17.7117 9.82031 18.3894 9.22461 19.1843 9.22461C19.2542 9.22461 19.3251 9.22949 19.395 9.23877C20.2659 9.35352 20.8812 10.1553 20.7665 11.0259Z" fill-rule="nonzero" fill="#FF7010"/>
	<path d="M19.3956 15.7729C19.2717 15.7568 19.1459 15.7485 19.0217 15.7485C17.6019 15.7485 16.3912 16.8115 16.2057 18.2207C16.1066 18.9736 16.3065 19.7202 16.7689 20.3228C17.2311 20.9253 17.9004 21.3115 18.6533 21.4106C18.7771 21.4272 18.9029 21.4351 19.027 21.4351C20.4469 21.4351 21.6575 20.3726 21.8431 18.9629C22.0478 17.4087 20.9498 15.978 19.3956 15.7729ZM20.6039 18.7998C20.4999 19.5898 19.8221 20.1851 19.0272 20.1851C18.9574 20.1851 18.8864 20.1807 18.8166 20.1714C18.3947 20.1157 18.0197 19.8994 17.7606 19.5615C17.5016 19.2241 17.3895 18.8057 17.445 18.3838C17.549 17.5942 18.2269 16.9985 19.0217 16.9985C19.0916 16.9985 19.1625 17.0034 19.2324 17.0127C20.1032 17.127 20.7185 17.9292 20.6039 18.7998Z" fill-rule="nonzero" fill="#FF7010"/>
	<path d="M15.2734 13.1841L13.3524 12.9312C13.0103 12.8857 12.6962 13.127 12.6511 13.4692C12.606 13.8115 12.8469 14.1255 13.1891 14.1704L15.1101 14.4233C15.1378 14.4272 15.1653 14.4287 15.1925 14.4287C15.5013 14.4287 15.7699 14.2002 15.8113 13.8853C15.8565 13.5435 15.6156 13.2295 15.2734 13.1841Z" fill-rule="nonzero" fill="#FF7010"/>
	<path d="M14.2993 17.7964L14.1297 16.5073C14.0846 16.165 13.7708 15.9243 13.4285 15.9692C13.0862 16.0142 12.8454 16.3281 12.8904 16.6704L13.0601 17.9595C13.1015 18.2739 13.3701 18.5029 13.6789 18.5029C13.7061 18.5029 13.7336 18.5015 13.7612 18.4976C14.1035 18.4526 14.3444 18.1387 14.2993 17.7964Z" fill-rule="nonzero" fill="#FF7010"/>
</svg>
