<svg width="16.000000" height="16.000000" viewBox="0 0 16 16" fill="none" xmlns="http://www.w3.org/2000/svg" xmlns:xlink="http://www.w3.org/1999/xlink">
	<desc>
			Created with Pixso.
	</desc>
	<defs/>
	<path id="Vector" d="M6.33337 16C6.27661 16 6.21997 15.9861 6.16931 15.9568C6.0647 15.8972 6 15.7866 6 15.6667L6 8.93188C6 8.646 5.87732 8.37402 5.66394 8.18457L0.558716 3.64941C0.203979 3.33545 0 2.87939 0 2.3999L0 1C0 0.44873 0.448608 0 1 0L15 0C15.5514 0 16 0.44873 16 1L16 2.3999C16 2.87939 15.796 3.33545 15.4407 3.6499L10.3361 8.1853C10.1227 8.37476 10 8.64673 10 8.93188L10 13.2886C10 13.6375 9.8147 13.9661 9.51465 14.146L6.50403 15.9519C6.45203 15.9839 6.3927 16 6.33337 16ZM1 0.666748C0.81665 0.666748 0.666626 0.815918 0.666626 1L0.666626 2.3999C0.666626 2.68872 0.788696 2.96265 1.00061 3.1499L6.10669 7.68604C6.46204 8.00195 6.66663 8.45605 6.66663 8.93188L6.66663 15.0779L9.172 13.5754C9.27136 13.5154 9.33337 13.4053 9.33337 13.2893L9.33337 8.93262C9.33337 8.45679 9.53796 8.00195 9.89331 7.68677L14.9987 3.15137C15.2113 2.96265 15.3334 2.68872 15.3334 2.3999L15.3334 1C15.3334 0.815918 15.1833 0.666748 15 0.666748L1 0.666748Z" fill-rule="nonzero" fill="#FF7010"/>
</svg>
