<svg id="icon-cross-white" width="32.000000" height="32.000000" viewBox="0 0 32 32" fill="none" xmlns="http://www.w3.org/2000/svg" xmlns:xlink="http://www.w3.org/1999/xlink">
	<desc>
			Created with Pixso.
	</desc>
	<defs>
		<clipPath id="clip230_24252">
			<rect id="Cross" width="32.000000" height="32.000000" fill="white"/>
		</clipPath>
	</defs>
	<g clip-path="url(#clip230_24252)">
		<path id="Union" d="M1.77637 0.304688C1.37012 -0.101562 0.710938 -0.101562 0.304688 0.304688C-0.101562 0.710938 -0.101562 1.36963 0.304688 1.77637L14.5283 16L0.304688 30.2236C-0.101562 30.6304 -0.101562 31.2891 0.304688 31.6953C0.710938 32.1016 1.37012 32.1016 1.77637 31.6953L16 17.4712L30.2236 31.6953C30.6299 32.1016 31.2891 32.1016 31.6953 31.6953C32.1016 31.2891 32.1016 30.6304 31.6953 30.2236L17.4717 16L31.6953 1.77637C32.1016 1.36963 32.1016 0.710938 31.6953 0.304688C31.2891 -0.101562 30.6299 -0.101562 30.2236 0.304688L16 14.5288L1.77637 0.304688Z" fill-rule="evenodd" fill="#FFFFFF"/>
	</g>
</svg>
