<svg width="32.000000" height="32.000000" viewBox="0 0 32 32" fill="none" xmlns="http://www.w3.org/2000/svg" xmlns:xlink="http://www.w3.org/1999/xlink">
	<desc>
			Created with Pixso.
	</desc>
	<defs>
		<clipPath id="clip4_3544">
			<rect id="Pizza" width="32.000000" height="32.000000" fill="white"/>
		</clipPath>
	</defs>
	<g clip-path="url(#clip4_3544)">
		<path id="Vector" d="M26.155 23.0049C26.2383 23.8687 25.9348 24.7163 25.3215 25.3301C24.7082 25.9438 23.8629 26.2476 22.998 26.165C22.2805 26.0957 21.5949 26.4907 21.2957 27.1489C20.9359 27.939 20.2492 28.5205 19.4117 28.7451C18.5734 28.9697 17.6887 28.8101 16.9832 28.3057C16.8632 28.2202 16.7334 28.1562 16.6 28.1055L16.6 32C22.0466 31.7979 26.804 28.8584 29.5394 24.5181L26.1736 22.5728C26.1508 22.7139 26.1409 22.8584 26.155 23.0049Z" fill-rule="nonzero" fill="#FF7010"/>
		<path id="Vector" d="M13.3398 28.8447C13.0891 28.8447 12.8367 28.812 12.5883 28.7456C11.7508 28.521 11.0641 27.939 10.7043 27.1489C10.4047 26.4907 9.71838 26.0962 9.00159 26.165C8.13599 26.2466 7.29144 25.9438 6.67853 25.3301C6.06525 24.7163 5.76172 23.8687 5.84497 23.0049C5.85907 22.8579 5.84918 22.7139 5.82642 22.5728L2.46057 24.5181C5.19604 28.8589 9.95337 31.7979 15.4 32L15.4 28.1055C15.2666 28.1562 15.1368 28.2202 15.0168 28.3057C14.5203 28.6602 13.9348 28.8447 13.3398 28.8447Z" fill-rule="nonzero" fill="#FF7010"/>
		<path id="Vector" d="M12.8988 4.41504C12.4086 4.54639 12.007 4.88672 11.7964 5.34912C11.2847 6.47363 10.1085 7.15039 8.88666 7.03076C8.3808 6.98193 7.88586 7.15967 7.52728 7.51904C7.16833 7.87842 6.9906 8.37451 7.03943 8.87988C7.07831 9.28418 7.02399 9.67969 6.90356 10.0498L15.4 14.96L15.4 5.13965C15.0194 5.05859 14.6503 4.9082 14.3199 4.67236C13.907 4.37695 13.3886 4.28369 12.8988 4.41504ZM13.067 10.915C12.1613 11.4385 11.0032 11.1279 10.4803 10.2212C9.95746 9.31494 10.2677 8.15576 11.1734 7.63232C12.079 7.10889 13.2371 7.41943 13.76 8.32617C14.2828 9.23242 13.9725 10.3916 13.067 10.915Z" fill-rule="nonzero" fill="#FF7010"/>
		<path id="Vector" d="M4.86169 21.3008C4.07263 20.9409 3.49139 20.2539 3.26678 19.4155C3.04218 18.5771 3.20233 17.6909 3.70624 16.9844C4.12579 16.3955 4.12579 15.6045 3.70624 15.0161C3.20233 14.3096 3.04218 13.4233 3.26678 12.585C3.49139 11.7466 4.07263 11.0596 4.86169 10.6997C4.99591 10.6387 5.11584 10.5576 5.22638 10.4678L1.85803 8.521C0.673889 10.7549 0 13.2998 0 16C0 18.7007 0.673889 21.2451 1.85803 23.4795L5.22644 21.5327C5.11584 21.4424 4.99591 21.3618 4.86169 21.3008Z" fill-rule="nonzero" fill="#FF7010"/>
		<path id="Vector" d="M19.4117 3.25488C20.2492 3.479 20.9359 4.06104 21.2957 4.85107C21.5949 5.50928 22.2805 5.90479 22.9984 5.83496C23.8613 5.75195 24.7086 6.05615 25.3215 6.66992C25.9348 7.28369 26.2383 8.13135 26.155 8.99512C26.1409 9.14209 26.1508 9.28613 26.1736 9.42725L29.5394 7.48242C26.804 3.1416 22.0466 0.202148 16.6 0L16.6 3.89453C16.7334 3.84375 16.8632 3.78027 16.9832 3.69434C17.6887 3.18994 18.5734 3.02979 19.4117 3.25488Z" fill-rule="nonzero" fill="#FF7010"/>
		<path id="Vector" d="M4.42578 19.1045C4.55701 19.5947 4.89728 19.9971 5.35938 20.207C5.72864 20.376 6.04346 20.6206 6.30365 20.9102L14.8002 16L6.30359 11.0898C6.04346 11.3794 5.72858 11.624 5.35938 11.7925C4.89728 12.0029 4.55701 12.4053 4.42578 12.8955C4.29449 13.3862 4.38824 13.9048 4.6828 14.3184C5.40039 15.3242 5.40039 16.6758 4.6828 17.6816C4.38824 18.0952 4.29449 18.6138 4.42578 19.1045ZM8.24042 14.1045C9.28619 14.1045 10.1339 14.9531 10.1339 16C10.1339 17.0469 9.28619 17.895 8.24042 17.895C7.19464 17.895 6.34686 17.0469 6.34686 16C6.34686 14.9531 7.19464 14.1045 8.24042 14.1045Z" fill-rule="nonzero" fill="#FF7010"/>
		<path id="Vector" d="M2.46057 7.48242L5.82642 9.42725C5.84924 9.28613 5.85907 9.1416 5.84497 8.99512C5.76172 8.13135 6.06525 7.28369 6.67853 6.66992C7.29181 6.05615 8.13715 5.75244 9.00195 5.83496C9.71722 5.90576 10.4051 5.50879 10.7043 4.85107C11.0641 4.06104 11.7508 3.47949 12.5883 3.25488C13.4262 3.03027 14.311 3.18994 15.0168 3.69434C15.1368 3.78027 15.2666 3.84375 15.4 3.89453L15.4 0C9.95337 0.202148 5.19604 3.1416 2.46057 7.48242Z" fill-rule="nonzero" fill="#FF7010"/>
		<path id="Vector" d="M30.142 8.521L26.7736 10.4678C26.8842 10.5581 27.0042 10.6387 27.1383 10.6997C27.9274 11.0596 28.5086 11.7466 28.7332 12.585C28.9578 13.4233 28.7977 14.3096 28.2938 15.0161C27.8743 15.6045 27.8743 16.3955 28.2938 16.9844C28.7977 17.6909 28.9578 18.5771 28.7332 19.4155C28.5086 20.2539 27.9274 20.9409 27.1383 21.3008C27.0042 21.3618 26.8842 21.4424 26.7737 21.5327L30.142 23.4795C31.3262 21.2451 32 18.7007 32 16C32 13.2998 31.3262 10.7549 30.142 8.521Z" fill-rule="nonzero" fill="#FF7010"/>
		<path id="Vector" d="M7.03943 23.1201C6.9906 23.6255 7.16833 24.1216 7.52728 24.481C7.88586 24.8398 8.38513 25.0161 8.88629 24.9692C10.1191 24.8496 11.2851 25.5269 11.7964 26.6509C12.007 27.1128 12.4086 27.4536 12.8988 27.585C13.3882 27.7163 13.907 27.623 14.3199 27.3276C14.6502 27.0918 15.0194 26.9414 15.4 26.8604L15.4 17.04L6.90356 21.9502C7.02399 22.3203 7.07831 22.7153 7.03943 23.1201ZM10.4803 21.7788C11.0032 20.8721 12.1613 20.5615 13.067 21.085C13.9725 21.6084 14.2828 22.7676 13.76 23.6738C13.2371 24.5806 12.079 24.8911 11.1734 24.3677C10.2677 23.8442 9.95746 22.6851 10.4803 21.7788Z" fill-rule="nonzero" fill="#FF7010"/>
		<path id="Vector" d="M19.1011 27.585C19.5914 27.4536 19.9929 27.1133 20.2035 26.6509C20.7152 25.5264 21.8914 24.8516 23.1133 24.9692C23.6176 25.0161 24.114 24.8398 24.4727 24.481C24.8316 24.1216 25.0093 23.6255 24.9605 23.1201C24.9216 22.7158 24.976 22.3203 25.0964 21.9502L16.6 17.04L16.6 26.8604C16.9805 26.9414 17.3497 27.0918 17.6801 27.3276C18.0933 27.623 18.6121 27.7168 19.1011 27.585ZM18.933 21.085C19.8386 20.5615 20.9968 20.8721 21.5196 21.7788C22.0425 22.6851 21.7322 23.8442 20.8265 24.3677C19.9209 24.8911 18.7628 24.5806 18.2399 23.6738C17.717 22.7676 18.0273 21.6084 18.933 21.085Z" fill-rule="nonzero" fill="#FF7010"/>
		<path id="Vector" d="M27.5742 12.8955C27.4429 12.4053 27.1027 12.0029 26.6406 11.7925C26.2712 11.624 25.9565 11.3794 25.6963 11.0898L17.1998 16L25.6964 20.9102C25.9565 20.6206 26.2713 20.376 26.6406 20.2075C27.1027 19.9971 27.4429 19.5947 27.5742 19.1045C27.7054 18.6138 27.6117 18.0952 27.3171 17.6816C26.5996 16.6758 26.5996 15.3242 27.3171 14.3179C27.6117 13.9048 27.7054 13.3862 27.5742 12.8955ZM23.7595 17.895C22.7138 17.895 21.866 17.0469 21.866 16C21.866 14.9531 22.7138 14.1045 23.7595 14.1045C24.8054 14.1045 25.6531 14.9531 25.6531 16C25.6531 17.0469 24.8054 17.895 23.7595 17.895Z" fill-rule="nonzero" fill="#FF7010"/>
		<path id="Vector" d="M24.9605 8.88037C25.0093 8.37451 24.8316 7.87842 24.4727 7.51953C24.114 7.16016 23.6144 6.98242 23.1136 7.03076C21.8812 7.14941 20.7148 6.47363 20.2035 5.34912C19.9929 4.88721 19.5914 4.54639 19.1011 4.41504C18.6117 4.28369 18.0933 4.37744 17.6801 4.67236C17.3497 4.9082 16.9805 5.05908 16.6 5.13965L16.6 14.96L25.0964 10.0498C24.976 9.67969 24.9216 9.28467 24.9605 8.88037ZM21.5196 10.2217C20.9968 11.1279 19.8386 11.4385 18.933 10.915C18.0273 10.3916 17.717 9.23242 18.2399 8.32617C18.7628 7.41943 19.9209 7.10889 20.8265 7.63232C21.7322 8.15576 22.0425 9.31494 21.5196 10.2217Z" fill-rule="nonzero" fill="#FF7010"/>
	</g>
</svg>
