<svg width="16.666626" height="20.000000" viewBox="0 0 16.6666 20" fill="none" xmlns="http://www.w3.org/2000/svg" xmlns:xlink="http://www.w3.org/1999/xlink">
	<desc>
			Created with Pixso.
	</desc>
	<defs/>
	<path id="Vector (Stroke)" d="M8.3335 0C5.69153 0 3.54175 2.1499 3.54175 4.79199C3.54175 7.43359 5.69153 9.5835 8.3335 9.5835C10.9755 9.5835 13.1252 7.43359 13.1252 4.79199C13.1252 2.1499 10.9755 0 8.3335 0ZM4.60901 4.79199C4.60901 2.73779 6.27966 1.06738 8.3335 1.06738C10.3873 1.06738 12.058 2.73779 12.058 4.79199C12.058 6.8457 10.3873 8.51611 8.3335 8.51611C6.27966 8.51611 4.60901 6.8457 4.60901 4.79199Z" fill-rule="evenodd" fill="#FF7010"/>
	<path id="Vector (Stroke)" d="M4.29724 11.6665C1.9281 11.6665 0 13.6455 0 16.0767L0 19.4883C0 19.7705 0.223389 20 0.498535 20L16.1681 20C16.4432 20 16.6666 19.7705 16.6666 19.4883L16.6666 16.0767C16.6666 13.6455 14.7386 11.6665 12.3695 11.6665L4.29724 11.6665ZM0.997192 16.0767C0.997192 14.209 2.47754 12.6899 4.29724 12.6899L12.3695 12.6899C14.1892 12.6899 15.6696 14.209 15.6696 16.0767L15.6696 18.9766L0.997192 18.9766L0.997192 16.0767Z" fill-rule="evenodd" fill="#FF7010"/>
</svg>
